<svg xmlns="http://www.w3.org/2000/svg" xmlns:xlink="http://www.w3.org/1999/xlink" width="2000" zoomAndPan="magnify" viewBox="0 0 1500 1499.999933" height="2000" preserveAspectRatio="xMidYMid meet" version="1.0"><defs><g/><clipPath id="73cd7358f7"><path d="M 66 0.199219 L 1272.519531 0.199219 L 1272.519531 518.601562 L 66 518.601562 Z M 66 0.199219 " clip-rule="nonzero"/></clipPath><clipPath id="34bd2a1e53"><rect x="0" width="1207" y="0" height="519"/></clipPath><clipPath id="e5ec265313"><path d="M 0.0390625 2 L 35 2 L 35 516 L 0.0390625 516 Z M 0.0390625 2 " clip-rule="nonzero"/></clipPath><clipPath id="ebe4191d6e"><rect x="0" width="1273" y="0" height="519"/></clipPath></defs><g transform="matrix(1, 0, 0, 1, 113, 925)"><g clip-path="url(#ebe4191d6e)"><g clip-path="url(#73cd7358f7)"><g transform="matrix(1, 0, 0, 1, 66, 0.000000000000113687)"><g clip-path="url(#34bd2a1e53)"><g fill="#000000" fill-opacity="1"><g transform="translate(0.490076, 191.52139)"><g><path d="M 143.578125 -138.640625 L 143.578125 0 L 117.25 0 L 48.125 -84.171875 L 48.125 0 L 16.4375 0 L 16.4375 -138.640625 L 42.96875 -138.640625 L 111.890625 -54.46875 L 111.890625 -138.640625 Z M 143.578125 -138.640625 "/></g></g></g><g fill="#000000" fill-opacity="1"><g transform="translate(160.508472, 191.52139)"><g><path d="M 57.234375 -108.140625 C 73.734375 -108.140625 86.40625 -104.207031 95.25 -96.34375 C 104.101562 -88.488281 108.53125 -76.640625 108.53125 -60.796875 L 108.53125 0 L 79.609375 0 L 79.609375 -13.265625 C 73.804688 -3.367188 62.984375 1.578125 47.140625 1.578125 C 38.953125 1.578125 31.851562 0.191406 25.84375 -2.578125 C 19.832031 -5.347656 15.242188 -9.175781 12.078125 -14.0625 C 8.910156 -18.945312 7.328125 -24.492188 7.328125 -30.703125 C 7.328125 -40.597656 11.054688 -48.382812 18.515625 -54.0625 C 25.972656 -59.738281 37.492188 -62.578125 53.078125 -62.578125 L 77.640625 -62.578125 C 77.640625 -69.316406 75.59375 -74.5 71.5 -78.125 C 67.40625 -81.757812 61.265625 -83.578125 53.078125 -83.578125 C 47.398438 -83.578125 41.820312 -82.6875 36.34375 -80.90625 C 30.863281 -79.125 26.207031 -76.710938 22.375 -73.671875 L 11.28125 -95.265625 C 17.09375 -99.359375 24.054688 -102.523438 32.171875 -104.765625 C 40.296875 -107.015625 48.648438 -108.140625 57.234375 -108.140625 Z M 54.859375 -19.203125 C 60.140625 -19.203125 64.828125 -20.421875 68.921875 -22.859375 C 73.015625 -25.304688 75.921875 -28.910156 77.640625 -33.671875 L 77.640625 -44.5625 L 56.4375 -44.5625 C 43.769531 -44.5625 37.4375 -40.398438 37.4375 -32.078125 C 37.4375 -28.117188 38.984375 -24.984375 42.078125 -22.671875 C 45.179688 -20.359375 49.441406 -19.203125 54.859375 -19.203125 Z M 54.859375 -19.203125 "/></g></g></g><g fill="#000000" fill-opacity="1"><g transform="translate(282.700725, 191.52139)"><g><path d="M 121.59375 -106.546875 L 121.59375 0 L 92.296875 0 L 92.296875 -12.671875 C 88.203125 -8.054688 83.316406 -4.523438 77.640625 -2.078125 C 71.960938 0.359375 65.820312 1.578125 59.21875 1.578125 C 45.21875 1.578125 34.125 -2.445312 25.9375 -10.5 C 17.757812 -18.550781 13.671875 -30.5 13.671875 -46.34375 L 13.671875 -106.546875 L 44.5625 -106.546875 L 44.5625 -50.890625 C 44.5625 -33.734375 51.753906 -25.15625 66.140625 -25.15625 C 73.535156 -25.15625 79.476562 -27.5625 83.96875 -32.375 C 88.457031 -37.195312 90.703125 -44.363281 90.703125 -53.875 L 90.703125 -106.546875 Z M 121.59375 -106.546875 "/></g></g></g><g fill="#000000" fill-opacity="1"><g transform="translate(418.755988, 191.52139)"><g><path d="M 82.984375 -5.15625 C 79.941406 -2.90625 76.207031 -1.21875 71.78125 -0.09375 C 67.363281 1.019531 62.710938 1.578125 57.828125 1.578125 C 45.148438 1.578125 35.34375 -1.65625 28.40625 -8.125 C 21.476562 -14.59375 18.015625 -24.097656 18.015625 -36.640625 L 18.015625 -80.40625 L 1.578125 -80.40625 L 1.578125 -104.171875 L 18.015625 -104.171875 L 18.015625 -130.109375 L 48.921875 -130.109375 L 48.921875 -104.171875 L 75.453125 -104.171875 L 75.453125 -80.40625 L 48.921875 -80.40625 L 48.921875 -37.03125 C 48.921875 -32.539062 50.070312 -29.070312 52.375 -26.625 C 54.6875 -24.1875 57.957031 -22.96875 62.1875 -22.96875 C 67.070312 -22.96875 71.226562 -24.289062 74.65625 -26.9375 Z M 82.984375 -5.15625 "/></g></g></g><g fill="#000000" fill-opacity="1"><g transform="translate(504.904482, 191.52139)"><g><path d="M 14.265625 -106.546875 L 45.15625 -106.546875 L 45.15625 0 L 14.265625 0 Z M 29.703125 -121.203125 C 24.828125 -121.203125 20.835938 -122.785156 17.734375 -125.953125 C 14.628906 -129.128906 13.078125 -133.15625 13.078125 -138.03125 C 13.078125 -142.789062 14.628906 -146.753906 17.734375 -149.921875 C 20.835938 -153.085938 24.828125 -154.671875 29.703125 -154.671875 C 34.585938 -154.671875 38.582031 -153.085938 41.6875 -149.921875 C 44.789062 -146.753906 46.34375 -142.789062 46.34375 -138.03125 C 46.34375 -133.15625 44.789062 -129.128906 41.6875 -125.953125 C 38.582031 -122.785156 34.585938 -121.203125 29.703125 -121.203125 Z M 29.703125 -121.203125 "/></g></g></g><g fill="#000000" fill-opacity="1"><g transform="translate(564.515253, 191.52139)"><g><path d="M 14.265625 -146.953125 L 45.15625 -146.953125 L 45.15625 0 L 14.265625 0 Z M 14.265625 -146.953125 "/></g></g></g><g fill="#000000" fill-opacity="1"><g transform="translate(624.126063, 191.52139)"><g><path d="M 121.59375 -106.546875 L 121.59375 0 L 92.296875 0 L 92.296875 -12.671875 C 88.203125 -8.054688 83.316406 -4.523438 77.640625 -2.078125 C 71.960938 0.359375 65.820312 1.578125 59.21875 1.578125 C 45.21875 1.578125 34.125 -2.445312 25.9375 -10.5 C 17.757812 -18.550781 13.671875 -30.5 13.671875 -46.34375 L 13.671875 -106.546875 L 44.5625 -106.546875 L 44.5625 -50.890625 C 44.5625 -33.734375 51.753906 -25.15625 66.140625 -25.15625 C 73.535156 -25.15625 79.476562 -27.5625 83.96875 -32.375 C 88.457031 -37.195312 90.703125 -44.363281 90.703125 -53.875 L 90.703125 -106.546875 Z M 121.59375 -106.546875 "/></g></g></g><g fill="#000000" fill-opacity="1"><g transform="translate(760.181286, 191.52139)"><g><path d="M 50.109375 1.578125 C 41.265625 1.578125 32.613281 0.488281 24.15625 -1.6875 C 15.707031 -3.863281 8.976562 -6.601562 3.96875 -9.90625 L 14.265625 -32.078125 C 19.015625 -29.046875 24.753906 -26.570312 31.484375 -24.65625 C 38.222656 -22.738281 44.828125 -21.78125 51.296875 -21.78125 C 64.367188 -21.78125 70.90625 -25.015625 70.90625 -31.484375 C 70.90625 -34.523438 69.117188 -36.703125 65.546875 -38.015625 C 61.984375 -39.335938 56.503906 -40.460938 49.109375 -41.390625 C 40.398438 -42.710938 33.207031 -44.226562 27.53125 -45.9375 C 21.851562 -47.65625 16.929688 -50.691406 12.765625 -55.046875 C 8.609375 -59.410156 6.53125 -65.617188 6.53125 -73.671875 C 6.53125 -80.410156 8.476562 -86.382812 12.375 -91.59375 C 16.269531 -96.8125 21.945312 -100.875 29.40625 -103.78125 C 36.863281 -106.6875 45.675781 -108.140625 55.84375 -108.140625 C 63.375 -108.140625 70.867188 -107.3125 78.328125 -105.65625 C 85.785156 -104.007812 91.957031 -101.734375 96.84375 -98.828125 L 86.546875 -76.84375 C 77.171875 -82.125 66.9375 -84.765625 55.84375 -84.765625 C 49.25 -84.765625 44.300781 -83.835938 41 -81.984375 C 37.695312 -80.140625 36.046875 -77.765625 36.046875 -74.859375 C 36.046875 -71.554688 37.828125 -69.242188 41.390625 -67.921875 C 44.953125 -66.609375 50.628906 -65.359375 58.421875 -64.171875 C 67.140625 -62.710938 74.269531 -61.15625 79.8125 -59.5 C 85.351562 -57.851562 90.171875 -54.851562 94.265625 -50.5 C 98.359375 -46.144531 100.40625 -40.070312 100.40625 -32.28125 C 100.40625 -25.675781 98.425781 -19.800781 94.46875 -14.65625 C 90.507812 -9.507812 84.734375 -5.515625 77.140625 -2.671875 C 69.546875 0.160156 60.535156 1.578125 50.109375 1.578125 Z M 50.109375 1.578125 "/></g></g></g><g fill="#000000" fill-opacity="1"><g transform="translate(0.490076, 468.243456)"><g><path d="M 45.15625 -112.484375 L 0.796875 -112.484375 L 0.796875 -138.640625 L 121.59375 -138.640625 L 121.59375 -112.484375 L 77.234375 -112.484375 L 77.234375 0 L 45.15625 0 Z M 45.15625 -112.484375 "/></g></g></g><g fill="#000000" fill-opacity="1"><g transform="translate(111.987993, 468.243456)"><g><path d="M 118.625 -52.875 C 118.625 -52.476562 118.425781 -49.707031 118.03125 -44.5625 L 37.4375 -44.5625 C 38.882812 -37.957031 42.3125 -32.738281 47.71875 -28.90625 C 53.132812 -25.082031 59.875 -23.171875 67.9375 -23.171875 C 73.476562 -23.171875 78.394531 -23.992188 82.6875 -25.640625 C 86.976562 -27.296875 90.972656 -29.90625 94.671875 -33.46875 L 111.109375 -15.640625 C 101.066406 -4.160156 86.410156 1.578125 67.140625 1.578125 C 55.117188 1.578125 44.488281 -0.765625 35.25 -5.453125 C 26.007812 -10.140625 18.878906 -16.640625 13.859375 -24.953125 C 8.847656 -33.273438 6.34375 -42.71875 6.34375 -53.28125 C 6.34375 -63.707031 8.816406 -73.113281 13.765625 -81.5 C 18.710938 -89.882812 25.507812 -96.421875 34.15625 -101.109375 C 42.8125 -105.796875 52.484375 -108.140625 63.171875 -108.140625 C 73.609375 -108.140625 83.050781 -105.894531 91.5 -101.40625 C 99.945312 -96.914062 106.578125 -90.476562 111.390625 -82.09375 C 116.210938 -73.707031 118.625 -63.96875 118.625 -52.875 Z M 63.375 -84.765625 C 56.375 -84.765625 50.5 -82.78125 45.75 -78.8125 C 41 -74.851562 38.09375 -69.441406 37.03125 -62.578125 L 89.515625 -62.578125 C 88.460938 -69.316406 85.554688 -74.695312 80.796875 -78.71875 C 76.046875 -82.75 70.238281 -84.765625 63.375 -84.765625 Z M 63.375 -84.765625 "/></g></g></g><g fill="#000000" fill-opacity="1"><g transform="translate(236.952834, 468.243456)"><g><path d="M 65.75 1.578125 C 54.394531 1.578125 44.195312 -0.765625 35.15625 -5.453125 C 26.113281 -10.140625 19.050781 -16.640625 13.96875 -24.953125 C 8.882812 -33.273438 6.34375 -42.71875 6.34375 -53.28125 C 6.34375 -63.84375 8.882812 -73.28125 13.96875 -81.59375 C 19.050781 -89.914062 26.113281 -96.421875 35.15625 -101.109375 C 44.195312 -105.796875 54.394531 -108.140625 65.75 -108.140625 C 76.96875 -108.140625 86.769531 -105.796875 95.15625 -101.109375 C 103.539062 -96.421875 109.648438 -89.71875 113.484375 -81 L 89.515625 -68.125 C 83.972656 -77.894531 75.984375 -82.78125 65.546875 -82.78125 C 57.492188 -82.78125 50.828125 -80.140625 45.546875 -74.859375 C 40.265625 -69.578125 37.625 -62.382812 37.625 -53.28125 C 37.625 -44.164062 40.265625 -36.96875 45.546875 -31.6875 C 50.828125 -26.40625 57.492188 -23.765625 65.546875 -23.765625 C 76.109375 -23.765625 84.097656 -28.648438 89.515625 -38.421875 L 113.484375 -25.34375 C 109.648438 -16.894531 103.539062 -10.296875 95.15625 -5.546875 C 86.769531 -0.796875 76.96875 1.578125 65.75 1.578125 Z M 65.75 1.578125 "/></g></g></g><g fill="#000000" fill-opacity="1"><g transform="translate(353.203799, 468.243456)"><g><path d="M 79.015625 -108.140625 C 92.222656 -108.140625 102.882812 -104.175781 111 -96.25 C 119.125 -88.332031 123.1875 -76.582031 123.1875 -61 L 123.1875 0 L 92.296875 0 L 92.296875 -56.25 C 92.296875 -64.695312 90.445312 -71 86.75 -75.15625 C 83.050781 -79.3125 77.703125 -81.390625 70.703125 -81.390625 C 62.910156 -81.390625 56.703125 -78.976562 52.078125 -74.15625 C 47.460938 -69.34375 45.15625 -62.1875 45.15625 -52.6875 L 45.15625 0 L 14.265625 0 L 14.265625 -146.953125 L 45.15625 -146.953125 L 45.15625 -95.453125 C 49.25 -99.546875 54.195312 -102.679688 60 -104.859375 C 65.8125 -107.046875 72.148438 -108.140625 79.015625 -108.140625 Z M 79.015625 -108.140625 "/></g></g></g><g fill="#000000" fill-opacity="1"><g transform="translate(490.051195, 468.243456)"><g><path d="M 79.015625 -108.140625 C 92.222656 -108.140625 102.882812 -104.175781 111 -96.25 C 119.125 -88.332031 123.1875 -76.582031 123.1875 -61 L 123.1875 0 L 92.296875 0 L 92.296875 -56.25 C 92.296875 -64.695312 90.445312 -71 86.75 -75.15625 C 83.050781 -79.3125 77.703125 -81.390625 70.703125 -81.390625 C 62.910156 -81.390625 56.703125 -78.976562 52.078125 -74.15625 C 47.460938 -69.34375 45.15625 -62.1875 45.15625 -52.6875 L 45.15625 0 L 14.265625 0 L 14.265625 -106.546875 L 43.765625 -106.546875 L 43.765625 -94.078125 C 47.859375 -98.566406 52.941406 -102.03125 59.015625 -104.46875 C 65.085938 -106.914062 71.753906 -108.140625 79.015625 -108.140625 Z M 79.015625 -108.140625 "/></g></g></g><g fill="#000000" fill-opacity="1"><g transform="translate(628.086842, 468.243456)"><g><path d="M 64.953125 1.578125 C 53.734375 1.578125 43.664062 -0.765625 34.75 -5.453125 C 25.84375 -10.140625 18.878906 -16.640625 13.859375 -24.953125 C 8.847656 -33.273438 6.34375 -42.71875 6.34375 -53.28125 C 6.34375 -63.84375 8.847656 -73.28125 13.859375 -81.59375 C 18.878906 -89.914062 25.84375 -96.421875 34.75 -101.109375 C 43.664062 -105.796875 53.734375 -108.140625 64.953125 -108.140625 C 76.179688 -108.140625 86.21875 -105.796875 95.0625 -101.109375 C 103.90625 -96.421875 110.835938 -89.914062 115.859375 -81.59375 C 120.878906 -73.28125 123.390625 -63.84375 123.390625 -53.28125 C 123.390625 -42.71875 120.878906 -33.273438 115.859375 -24.953125 C 110.835938 -16.640625 103.90625 -10.140625 95.0625 -5.453125 C 86.21875 -0.765625 76.179688 1.578125 64.953125 1.578125 Z M 64.953125 -23.765625 C 72.878906 -23.765625 79.382812 -26.4375 84.46875 -31.78125 C 89.550781 -37.132812 92.09375 -44.300781 92.09375 -53.28125 C 92.09375 -62.25 89.550781 -69.40625 84.46875 -74.75 C 79.382812 -80.101562 72.878906 -82.78125 64.953125 -82.78125 C 57.035156 -82.78125 50.5 -80.101562 45.34375 -74.75 C 40.195312 -69.40625 37.625 -62.25 37.625 -53.28125 C 37.625 -44.300781 40.195312 -37.132812 45.34375 -31.78125 C 50.5 -26.4375 57.035156 -23.765625 64.953125 -23.765625 Z M 64.953125 -23.765625 "/></g></g></g><g fill="#000000" fill-opacity="1"><g transform="translate(757.804712, 468.243456)"><g><path d="M 14.265625 -146.953125 L 45.15625 -146.953125 L 45.15625 0 L 14.265625 0 Z M 14.265625 -146.953125 "/></g></g></g><g fill="#000000" fill-opacity="1"><g transform="translate(817.415482, 468.243456)"><g><path d="M 64.953125 1.578125 C 53.734375 1.578125 43.664062 -0.765625 34.75 -5.453125 C 25.84375 -10.140625 18.878906 -16.640625 13.859375 -24.953125 C 8.847656 -33.273438 6.34375 -42.71875 6.34375 -53.28125 C 6.34375 -63.84375 8.847656 -73.28125 13.859375 -81.59375 C 18.878906 -89.914062 25.84375 -96.421875 34.75 -101.109375 C 43.664062 -105.796875 53.734375 -108.140625 64.953125 -108.140625 C 76.179688 -108.140625 86.21875 -105.796875 95.0625 -101.109375 C 103.90625 -96.421875 110.835938 -89.914062 115.859375 -81.59375 C 120.878906 -73.28125 123.390625 -63.84375 123.390625 -53.28125 C 123.390625 -42.71875 120.878906 -33.273438 115.859375 -24.953125 C 110.835938 -16.640625 103.90625 -10.140625 95.0625 -5.453125 C 86.21875 -0.765625 76.179688 1.578125 64.953125 1.578125 Z M 64.953125 -23.765625 C 72.878906 -23.765625 79.382812 -26.4375 84.46875 -31.78125 C 89.550781 -37.132812 92.09375 -44.300781 92.09375 -53.28125 C 92.09375 -62.25 89.550781 -69.40625 84.46875 -74.75 C 79.382812 -80.101562 72.878906 -82.78125 64.953125 -82.78125 C 57.035156 -82.78125 50.5 -80.101562 45.34375 -74.75 C 40.195312 -69.40625 37.625 -62.25 37.625 -53.28125 C 37.625 -44.300781 40.195312 -37.132812 45.34375 -31.78125 C 50.5 -26.4375 57.035156 -23.765625 64.953125 -23.765625 Z M 64.953125 -23.765625 "/></g></g></g><g fill="#000000" fill-opacity="1"><g transform="translate(947.133353, 468.243456)"><g><path d="M 124.171875 -106.546875 L 124.171875 -17.828125 C 124.171875 1.710938 119.085938 16.234375 108.921875 25.734375 C 98.753906 35.242188 83.898438 40 64.359375 40 C 54.066406 40 44.296875 38.742188 35.046875 36.234375 C 25.804688 33.734375 18.148438 30.101562 12.078125 25.34375 L 24.359375 3.171875 C 28.847656 6.867188 34.523438 9.804688 41.390625 11.984375 C 48.253906 14.160156 55.117188 15.25 61.984375 15.25 C 72.679688 15.25 80.570312 12.835938 85.65625 8.015625 C 90.738281 3.203125 93.28125 -4.085938 93.28125 -13.859375 L 93.28125 -18.421875 C 85.226562 -9.578125 74.003906 -5.15625 59.609375 -5.15625 C 49.835938 -5.15625 40.890625 -7.296875 32.765625 -11.578125 C 24.648438 -15.867188 18.21875 -21.910156 13.46875 -29.703125 C 8.71875 -37.492188 6.34375 -46.472656 6.34375 -56.640625 C 6.34375 -66.804688 8.71875 -75.785156 13.46875 -83.578125 C 18.21875 -91.367188 24.648438 -97.410156 32.765625 -101.703125 C 40.890625 -105.992188 49.835938 -108.140625 59.609375 -108.140625 C 75.054688 -108.140625 86.804688 -103.054688 94.859375 -92.890625 L 94.859375 -106.546875 Z M 65.75 -30.5 C 73.9375 -30.5 80.632812 -32.90625 85.84375 -37.71875 C 91.0625 -42.539062 93.671875 -48.847656 93.671875 -56.640625 C 93.671875 -64.429688 91.0625 -70.734375 85.84375 -75.546875 C 80.632812 -80.367188 73.9375 -82.78125 65.75 -82.78125 C 57.5625 -82.78125 50.828125 -80.367188 45.546875 -75.546875 C 40.265625 -70.734375 37.625 -64.429688 37.625 -56.640625 C 37.625 -48.847656 40.265625 -42.539062 45.546875 -37.71875 C 50.828125 -32.90625 57.5625 -30.5 65.75 -30.5 Z M 65.75 -30.5 "/></g></g></g><g fill="#000000" fill-opacity="1"><g transform="translate(1085.763205, 468.243456)"><g><path d="M 120.015625 -106.546875 L 71.890625 6.53125 C 67.003906 18.8125 60.960938 27.457031 53.765625 32.46875 C 46.566406 37.488281 37.890625 40 27.734375 40 C 22.179688 40 16.695312 39.140625 11.28125 37.421875 C 5.875 35.710938 1.453125 33.335938 -1.984375 30.296875 L 9.3125 8.3125 C 11.6875 10.425781 14.425781 12.078125 17.53125 13.265625 C 20.632812 14.453125 23.703125 15.046875 26.734375 15.046875 C 30.960938 15.046875 34.394531 14.019531 37.03125 11.96875 C 39.675781 9.925781 42.054688 6.53125 44.171875 1.78125 L 44.5625 0.796875 L -1.578125 -106.546875 L 30.296875 -106.546875 L 60.203125 -34.265625 L 90.3125 -106.546875 Z M 120.015625 -106.546875 "/></g></g></g></g></g></g><g clip-path="url(#e5ec265313)"><path stroke-linecap="round" transform="matrix(0.00000000239982, -1.374996, 1.374996, 0.00000000239982, 0.158046, 515.566808)" fill="none" stroke-linejoin="miter" d="M 12.500329 12.498731 L 360.410444 12.49873 " stroke="#000000" stroke-width="25" stroke-opacity="1" stroke-miterlimit="4"/></g></g></g><path fill="#000000" d="M 109.574219 429.890625 L 109.574219 810.441406 L 270.488281 810.441406 L 270.777344 564.425781 L 271.210938 318.410156 L 295.277344 346.535156 C 317.164062 372.195312 340.648438 400.316406 480.976562 569.210938 C 533.019531 631.835938 523.597656 620.671875 586.511719 694.464844 C 614.054688 726.792969 647.542969 766.078125 660.878906 781.882812 L 685.234375 810.441406 L 756.558594 810.152344 L 827.878906 809.714844 L 828.316406 506.726562 L 828.605469 203.738281 L 918.484375 204.171875 L 1008.363281 204.464844 L 1008.363281 810.441406 L 1167.824219 810.441406 L 1167.824219 204.464844 L 1389.621094 204.464844 L 1389.621094 49.34375 L 666.242188 49.34375 L 665.953125 292.171875 L 665.519531 534.996094 L 642.179688 506.4375 C 550.269531 393.792969 454.59375 281.441406 278.460938 79.5 L 252.367188 49.488281 L 181.042969 49.488281 L 109.574219 49.34375 Z M 221.054688 120.667969 C 233.085938 134.730469 290.925781 200.695312 305.714844 217.511719 C 407.335938 332.617188 494.3125 435.257812 577.089844 538.039062 C 599.414062 565.730469 648.703125 623.285156 712.632812 696.347656 L 735.101562 722.007812 L 735.539062 419.019531 L 735.828125 116.03125 L 1322.9375 116.03125 L 1322.9375 137.777344 L 1099.691406 137.777344 L 1099.691406 743.753906 L 1076.496094 743.753906 L 1076.496094 137.777344 L 917.46875 138.066406 L 758.296875 138.5 L 758.296875 742.304688 L 720.027344 742.304688 L 684.800781 701.421875 C 665.375 679.097656 642.46875 652.421875 633.625 642.273438 C 624.929688 632.125 607.824219 612.554688 595.789062 598.636719 C 583.902344 584.722656 559.695312 555.726562 542.296875 534.269531 C 447.34375 416.988281 408.785156 371.324219 298.175781 245.054688 C 217.140625 152.5625 203.949219 137.777344 202.207031 137.777344 C 201.339844 137.777344 200.902344 250.417969 200.902344 439.605469 L 201.046875 741.578125 L 190.03125 742.015625 L 179.160156 742.449219 L 179.160156 116.03125 L 216.996094 116.03125 Z M 221.054688 120.667969 " fill-opacity="1" fill-rule="nonzero"/></svg>