<svg xmlns="http://www.w3.org/2000/svg" xmlns:xlink="http://www.w3.org/1999/xlink" width="164" zoomAndPan="magnify" viewBox="0 0 123 235.499993" height="314" preserveAspectRatio="xMidYMid meet" version="1.0"><defs><clipPath id="abe5551ec5"><path d="M 0.128906 0 L 122.867188 0 L 122.867188 235 L 0.128906 235 Z M 0.128906 0 " clip-rule="nonzero"/></clipPath><clipPath id="a3e150ddc0"><path d="M 12.34375 160 L 23 160 L 23 173 L 12.34375 173 Z M 12.34375 160 " clip-rule="nonzero"/></clipPath><clipPath id="2029ac59df"><path d="M 105 163 L 115.886719 163 L 115.886719 176 L 105 176 Z M 105 163 " clip-rule="nonzero"/></clipPath><clipPath id="5f336b080e"><path d="M 6.683594 132.542969 L 9.683594 132.542969 L 9.683594 176.652344 L 6.683594 176.652344 Z M 6.683594 132.542969 " clip-rule="nonzero"/></clipPath></defs><g clip-path="url(#abe5551ec5)"><path fill="#ffffff" d="M 0.128906 0 L 122.871094 0 L 122.871094 235 L 0.128906 235 Z M 0.128906 0 " fill-opacity="1" fill-rule="nonzero"/></g><path fill="#000000" d="M 24.707031 136.910156 L 24.707031 148.808594 L 22.449219 148.808594 L 16.515625 141.585938 L 16.515625 148.808594 L 13.796875 148.808594 L 13.796875 136.910156 L 16.074219 136.910156 L 21.988281 144.132812 L 21.988281 136.910156 Z M 24.707031 136.910156 " fill-opacity="1" fill-rule="nonzero"/><path fill="#000000" d="M 31.03125 139.527344 C 32.445312 139.527344 33.535156 139.867188 34.292969 140.539062 C 35.054688 141.214844 35.433594 142.230469 35.433594 143.589844 L 35.433594 148.808594 L 32.949219 148.808594 L 32.949219 147.667969 C 32.453125 148.519531 31.523438 148.945312 30.164062 148.945312 C 29.460938 148.945312 28.851562 148.824219 28.335938 148.585938 C 27.820312 148.347656 27.425781 148.019531 27.15625 147.601562 C 26.882812 147.183594 26.75 146.707031 26.75 146.171875 C 26.75 145.324219 27.066406 144.65625 27.707031 144.167969 C 28.347656 143.679688 29.335938 143.4375 30.675781 143.4375 L 32.78125 143.4375 C 32.78125 142.859375 32.605469 142.414062 32.253906 142.105469 C 31.902344 141.792969 31.375 141.636719 30.675781 141.636719 C 30.1875 141.636719 29.707031 141.710938 29.238281 141.863281 C 28.769531 142.019531 28.367188 142.226562 28.039062 142.484375 L 27.085938 140.632812 C 27.585938 140.28125 28.183594 140.011719 28.878906 139.816406 C 29.578125 139.625 30.292969 139.527344 31.03125 139.527344 Z M 30.828125 147.160156 C 31.28125 147.160156 31.683594 147.054688 32.035156 146.847656 C 32.386719 146.636719 32.632812 146.328125 32.78125 145.917969 L 32.78125 144.984375 L 30.960938 144.984375 C 29.875 144.984375 29.332031 145.339844 29.332031 146.054688 C 29.332031 146.394531 29.464844 146.664062 29.730469 146.863281 C 29.996094 147.0625 30.363281 147.160156 30.828125 147.160156 Z M 30.828125 147.160156 " fill-opacity="1" fill-rule="nonzero"/><path fill="#000000" d="M 47.039062 139.664062 L 47.039062 148.808594 L 44.527344 148.808594 L 44.527344 147.71875 C 44.175781 148.117188 43.753906 148.421875 43.269531 148.628906 C 42.78125 148.839844 42.253906 148.945312 41.6875 148.945312 C 40.484375 148.945312 39.535156 148.597656 38.832031 147.90625 C 38.128906 147.214844 37.777344 146.191406 37.777344 144.832031 L 37.777344 139.664062 L 40.429688 139.664062 L 40.429688 144.441406 C 40.429688 145.914062 41.046875 146.648438 42.28125 146.648438 C 42.917969 146.648438 43.425781 146.441406 43.8125 146.03125 C 44.195312 145.617188 44.390625 145 44.390625 144.183594 L 44.390625 139.664062 Z M 47.039062 139.664062 " fill-opacity="1" fill-rule="nonzero"/><path fill="#000000" d="M 55.402344 148.367188 C 55.140625 148.558594 54.820312 148.703125 54.441406 148.800781 C 54.0625 148.894531 53.664062 148.945312 53.246094 148.945312 C 52.15625 148.945312 51.316406 148.664062 50.71875 148.109375 C 50.125 147.554688 49.828125 146.738281 49.828125 145.664062 L 49.828125 141.90625 L 48.417969 141.90625 L 48.417969 139.867188 L 49.828125 139.867188 L 49.828125 137.640625 L 52.480469 137.640625 L 52.480469 139.867188 L 54.757812 139.867188 L 54.757812 141.90625 L 52.480469 141.90625 L 52.480469 145.628906 C 52.480469 146.015625 52.578125 146.3125 52.777344 146.523438 C 52.976562 146.730469 53.253906 146.835938 53.617188 146.835938 C 54.039062 146.835938 54.394531 146.722656 54.6875 146.496094 Z M 55.402344 148.367188 " fill-opacity="1" fill-rule="nonzero"/><path fill="#000000" d="M 56.898438 139.664062 L 59.550781 139.664062 L 59.550781 148.808594 L 56.898438 148.808594 Z M 58.222656 138.40625 C 57.804688 138.40625 57.460938 138.269531 57.195312 138 C 56.929688 137.726562 56.796875 137.382812 56.796875 136.960938 C 56.796875 136.554688 56.929688 136.214844 57.195312 135.941406 C 57.460938 135.671875 57.804688 135.535156 58.222656 135.535156 C 58.644531 135.535156 58.984375 135.671875 59.253906 135.941406 C 59.519531 136.214844 59.652344 136.554688 59.652344 136.960938 C 59.652344 137.382812 59.519531 137.726562 59.253906 138 C 58.984375 138.269531 58.644531 138.40625 58.222656 138.40625 Z M 58.222656 138.40625 " fill-opacity="1" fill-rule="nonzero"/><path fill="#000000" d="M 62.015625 136.195312 L 64.664062 136.195312 L 64.664062 148.808594 L 62.015625 148.808594 Z M 62.015625 136.195312 " fill-opacity="1" fill-rule="nonzero"/><path fill="#000000" d="M 76.339844 139.664062 L 76.339844 148.808594 L 73.828125 148.808594 L 73.828125 147.71875 C 73.476562 148.117188 73.054688 148.421875 72.570312 148.628906 C 72.082031 148.839844 71.554688 148.945312 70.988281 148.945312 C 69.785156 148.945312 68.835938 148.597656 68.132812 147.90625 C 67.429688 147.214844 67.078125 146.191406 67.078125 144.832031 L 67.078125 139.664062 L 69.730469 139.664062 L 69.730469 144.441406 C 69.730469 145.914062 70.347656 146.648438 71.582031 146.648438 C 72.214844 146.648438 72.726562 146.441406 73.113281 146.03125 C 73.496094 145.617188 73.691406 145 73.691406 144.183594 L 73.691406 139.664062 Z M 76.339844 139.664062 " fill-opacity="1" fill-rule="nonzero"/><path fill="#000000" d="M 81.882812 148.945312 C 81.125 148.945312 80.378906 148.851562 79.65625 148.664062 C 78.929688 148.476562 78.351562 148.242188 77.921875 147.957031 L 78.804688 146.054688 C 79.214844 146.316406 79.707031 146.527344 80.285156 146.691406 C 80.863281 146.855469 81.429688 146.9375 81.984375 146.9375 C 83.105469 146.9375 83.667969 146.660156 83.667969 146.105469 C 83.667969 145.84375 83.511719 145.660156 83.207031 145.546875 C 82.902344 145.433594 82.429688 145.335938 81.796875 145.257812 C 81.046875 145.144531 80.429688 145.011719 79.945312 144.867188 C 79.457031 144.71875 79.035156 144.457031 78.675781 144.085938 C 78.320312 143.710938 78.140625 143.175781 78.140625 142.484375 C 78.140625 141.90625 78.308594 141.394531 78.644531 140.949219 C 78.976562 140.5 79.464844 140.152344 80.105469 139.902344 C 80.746094 139.652344 81.5 139.527344 82.375 139.527344 C 83.019531 139.527344 83.664062 139.597656 84.304688 139.742188 C 84.945312 139.882812 85.472656 140.078125 85.894531 140.328125 L 85.007812 142.214844 C 84.203125 141.761719 83.328125 141.535156 82.375 141.535156 C 81.808594 141.535156 81.382812 141.613281 81.101562 141.773438 C 80.816406 141.929688 80.675781 142.132812 80.675781 142.382812 C 80.675781 142.667969 80.828125 142.867188 81.132812 142.980469 C 81.441406 143.09375 81.925781 143.199219 82.59375 143.300781 C 83.34375 143.425781 83.957031 143.558594 84.429688 143.703125 C 84.90625 143.84375 85.320312 144.101562 85.671875 144.472656 C 86.023438 144.847656 86.199219 145.371094 86.199219 146.039062 C 86.199219 146.605469 86.027344 147.109375 85.6875 147.550781 C 85.347656 147.992188 84.855469 148.335938 84.203125 148.578125 C 83.550781 148.820312 82.777344 148.945312 81.882812 148.945312 Z M 81.882812 148.945312 " fill-opacity="1" fill-rule="nonzero"/><g clip-path="url(#a3e150ddc0)"><path fill="#000000" d="M 16.261719 162.902344 L 12.457031 162.902344 L 12.457031 160.65625 L 22.820312 160.65625 L 22.820312 162.902344 L 19.015625 162.902344 L 19.015625 172.554688 L 16.261719 172.554688 Z M 16.261719 162.902344 " fill-opacity="1" fill-rule="nonzero"/></g><path fill="#000000" d="M 32.136719 168.019531 C 32.136719 168.050781 32.117188 168.289062 32.085938 168.730469 L 25.167969 168.730469 C 25.292969 169.296875 25.585938 169.746094 26.050781 170.074219 C 26.515625 170.402344 27.09375 170.566406 27.785156 170.566406 C 28.261719 170.566406 28.683594 170.496094 29.050781 170.355469 C 29.417969 170.214844 29.761719 169.988281 30.078125 169.683594 L 31.492188 171.214844 C 30.628906 172.199219 29.371094 172.691406 27.71875 172.691406 C 26.683594 172.691406 25.773438 172.488281 24.980469 172.085938 C 24.1875 171.6875 23.574219 171.128906 23.144531 170.414062 C 22.714844 169.699219 22.5 168.890625 22.5 167.984375 C 22.5 167.089844 22.710938 166.28125 23.136719 165.5625 C 23.5625 164.84375 24.144531 164.28125 24.886719 163.878906 C 25.628906 163.476562 26.460938 163.277344 27.375 163.277344 C 28.273438 163.277344 29.082031 163.46875 29.808594 163.851562 C 30.53125 164.238281 31.101562 164.792969 31.515625 165.511719 C 31.929688 166.230469 32.136719 167.066406 32.136719 168.019531 Z M 27.394531 165.28125 C 26.792969 165.28125 26.289062 165.453125 25.882812 165.792969 C 25.472656 166.132812 25.222656 166.597656 25.132812 167.183594 L 29.636719 167.183594 C 29.546875 166.605469 29.296875 166.144531 28.890625 165.800781 C 28.480469 165.453125 27.984375 165.28125 27.394531 165.28125 Z M 27.394531 165.28125 " fill-opacity="1" fill-rule="nonzero"/><path fill="#000000" d="M 38.320312 172.691406 C 37.347656 172.691406 36.472656 172.488281 35.695312 172.085938 C 34.921875 171.6875 34.3125 171.128906 33.878906 170.414062 C 33.441406 169.699219 33.222656 168.890625 33.222656 167.984375 C 33.222656 167.078125 33.441406 166.265625 33.878906 165.554688 C 34.3125 164.839844 34.921875 164.28125 35.695312 163.878906 C 36.472656 163.476562 37.347656 163.277344 38.320312 163.277344 C 39.285156 163.277344 40.125 163.476562 40.84375 163.878906 C 41.566406 164.28125 42.089844 164.855469 42.417969 165.605469 L 40.363281 166.710938 C 39.886719 165.871094 39.199219 165.453125 38.304688 165.453125 C 37.613281 165.453125 37.042969 165.679688 36.589844 166.132812 C 36.136719 166.585938 35.910156 167.203125 35.910156 167.984375 C 35.910156 168.765625 36.136719 169.382812 36.589844 169.835938 C 37.042969 170.289062 37.613281 170.515625 38.304688 170.515625 C 39.210938 170.515625 39.898438 170.097656 40.363281 169.257812 L 42.417969 170.378906 C 42.089844 171.105469 41.566406 171.671875 40.84375 172.078125 C 40.125 172.488281 39.285156 172.691406 38.320312 172.691406 Z M 38.320312 172.691406 " fill-opacity="1" fill-rule="nonzero"/><path fill="#000000" d="M 49.4375 163.277344 C 50.570312 163.277344 51.484375 163.617188 52.183594 164.296875 C 52.878906 164.976562 53.226562 165.984375 53.226562 167.320312 L 53.226562 172.554688 L 50.578125 172.554688 L 50.578125 167.730469 C 50.578125 167.003906 50.417969 166.460938 50.101562 166.105469 C 49.78125 165.75 49.324219 165.570312 48.722656 165.570312 C 48.054688 165.570312 47.523438 165.777344 47.125 166.191406 C 46.730469 166.605469 46.53125 167.21875 46.53125 168.035156 L 46.53125 172.554688 L 43.878906 172.554688 L 43.878906 159.945312 L 46.53125 159.945312 L 46.53125 164.363281 C 46.882812 164.011719 47.308594 163.742188 47.804688 163.558594 C 48.304688 163.371094 48.847656 163.277344 49.4375 163.277344 Z M 49.4375 163.277344 " fill-opacity="1" fill-rule="nonzero"/><path fill="#000000" d="M 61.179688 163.277344 C 62.3125 163.277344 63.230469 163.617188 63.925781 164.296875 C 64.621094 164.976562 64.972656 165.984375 64.972656 167.320312 L 64.972656 172.554688 L 62.320312 172.554688 L 62.320312 167.730469 C 62.320312 167.003906 62.160156 166.460938 61.84375 166.105469 C 61.527344 165.75 61.066406 165.570312 60.46875 165.570312 C 59.796875 165.570312 59.265625 165.777344 58.867188 166.191406 C 58.472656 166.605469 58.273438 167.21875 58.273438 168.035156 L 58.273438 172.554688 L 55.625 172.554688 L 55.625 163.414062 L 58.15625 163.414062 L 58.15625 164.480469 C 58.507812 164.097656 58.941406 163.800781 59.464844 163.589844 C 59.984375 163.378906 60.558594 163.277344 61.179688 163.277344 Z M 61.179688 163.277344 " fill-opacity="1" fill-rule="nonzero"/><path fill="#000000" d="M 71.820312 172.691406 C 70.855469 172.691406 69.992188 172.488281 69.226562 172.085938 C 68.464844 171.6875 67.867188 171.128906 67.433594 170.414062 C 67.003906 169.699219 66.789062 168.890625 66.789062 167.984375 C 66.789062 167.078125 67.003906 166.265625 67.433594 165.554688 C 67.867188 164.839844 68.464844 164.28125 69.226562 163.878906 C 69.992188 163.476562 70.855469 163.277344 71.820312 163.277344 C 72.785156 163.277344 73.644531 163.476562 74.402344 163.878906 C 75.164062 164.28125 75.757812 164.839844 76.1875 165.554688 C 76.621094 166.265625 76.835938 167.078125 76.835938 167.984375 C 76.835938 168.890625 76.621094 169.699219 76.1875 170.414062 C 75.757812 171.128906 75.164062 171.6875 74.402344 172.085938 C 73.644531 172.488281 72.785156 172.691406 71.820312 172.691406 Z M 71.820312 170.515625 C 72.5 170.515625 73.058594 170.285156 73.496094 169.828125 C 73.929688 169.367188 74.148438 168.753906 74.148438 167.984375 C 74.148438 167.214844 73.929688 166.597656 73.496094 166.140625 C 73.058594 165.683594 72.5 165.453125 71.820312 165.453125 C 71.140625 165.453125 70.578125 165.683594 70.136719 166.140625 C 69.695312 166.597656 69.476562 167.214844 69.476562 167.984375 C 69.476562 168.753906 69.695312 169.367188 70.136719 169.828125 C 70.578125 170.285156 71.140625 170.515625 71.820312 170.515625 Z M 71.820312 170.515625 " fill-opacity="1" fill-rule="nonzero"/><path fill="#000000" d="M 78.601562 159.945312 L 81.253906 159.945312 L 81.253906 172.554688 L 78.601562 172.554688 Z M 78.601562 159.945312 " fill-opacity="1" fill-rule="nonzero"/><path fill="#000000" d="M 88.066406 172.691406 C 87.105469 172.691406 86.242188 172.488281 85.476562 172.085938 C 84.710938 171.6875 84.113281 171.128906 83.683594 170.414062 C 83.253906 169.699219 83.039062 168.890625 83.039062 167.984375 C 83.039062 167.078125 83.253906 166.265625 83.683594 165.554688 C 84.113281 164.839844 84.710938 164.28125 85.476562 163.878906 C 86.242188 163.476562 87.105469 163.277344 88.066406 163.277344 C 89.03125 163.277344 89.894531 163.476562 90.652344 163.878906 C 91.410156 164.28125 92.003906 164.839844 92.4375 165.554688 C 92.867188 166.265625 93.082031 167.078125 93.082031 167.984375 C 93.082031 168.890625 92.867188 169.699219 92.4375 170.414062 C 92.003906 171.128906 91.410156 171.6875 90.652344 172.085938 C 89.894531 172.488281 89.03125 172.691406 88.066406 172.691406 Z M 88.066406 170.515625 C 88.746094 170.515625 89.304688 170.285156 89.742188 169.828125 C 90.179688 169.367188 90.398438 168.753906 90.398438 167.984375 C 90.398438 167.214844 90.179688 166.597656 89.742188 166.140625 C 89.304688 165.683594 88.746094 165.453125 88.066406 165.453125 C 87.386719 165.453125 86.828125 165.683594 86.386719 166.140625 C 85.941406 166.597656 85.722656 167.214844 85.722656 167.984375 C 85.722656 168.753906 85.941406 169.367188 86.386719 169.828125 C 86.828125 170.285156 87.386719 170.515625 88.066406 170.515625 Z M 88.066406 170.515625 " fill-opacity="1" fill-rule="nonzero"/><path fill="#000000" d="M 104.28125 163.414062 L 104.28125 171.027344 C 104.28125 172.703125 103.84375 173.949219 102.972656 174.765625 C 102.101562 175.582031 100.824219 175.988281 99.148438 175.988281 C 98.265625 175.988281 97.425781 175.878906 96.632812 175.664062 C 95.839844 175.449219 95.183594 175.140625 94.664062 174.730469 L 95.714844 172.828125 C 96.101562 173.144531 96.589844 173.398438 97.175781 173.585938 C 97.765625 173.769531 98.355469 173.863281 98.945312 173.863281 C 99.863281 173.863281 100.539062 173.65625 100.976562 173.242188 C 101.414062 172.832031 101.628906 172.207031 101.628906 171.367188 L 101.628906 170.976562 C 100.941406 171.734375 99.976562 172.113281 98.742188 172.113281 C 97.902344 172.113281 97.136719 171.929688 96.4375 171.5625 C 95.742188 171.195312 95.1875 170.675781 94.78125 170.007812 C 94.375 169.339844 94.171875 168.566406 94.171875 167.695312 C 94.171875 166.824219 94.375 166.050781 94.78125 165.382812 C 95.1875 164.714844 95.742188 164.195312 96.4375 163.828125 C 97.136719 163.460938 97.902344 163.277344 98.742188 163.277344 C 100.066406 163.277344 101.074219 163.710938 101.765625 164.585938 L 101.765625 163.414062 Z M 99.269531 169.9375 C 99.972656 169.9375 100.546875 169.730469 100.992188 169.320312 C 101.441406 168.90625 101.664062 168.363281 101.664062 167.695312 C 101.664062 167.027344 101.441406 166.484375 100.992188 166.074219 C 100.546875 165.660156 99.972656 165.453125 99.269531 165.453125 C 98.566406 165.453125 97.988281 165.660156 97.535156 166.074219 C 97.082031 166.484375 96.855469 167.027344 96.855469 167.695312 C 96.855469 168.363281 97.082031 168.90625 97.535156 169.320312 C 97.988281 169.730469 98.566406 169.9375 99.269531 169.9375 Z M 99.269531 169.9375 " fill-opacity="1" fill-rule="nonzero"/><g clip-path="url(#2029ac59df)"><path fill="#000000" d="M 115.820312 163.414062 L 111.691406 173.117188 C 111.273438 174.171875 110.753906 174.910156 110.136719 175.34375 C 109.519531 175.773438 108.773438 175.988281 107.902344 175.988281 C 107.425781 175.988281 106.957031 175.914062 106.492188 175.765625 C 106.027344 175.621094 105.648438 175.417969 105.351562 175.15625 L 106.320312 173.269531 C 106.527344 173.449219 106.761719 173.59375 107.027344 173.695312 C 107.292969 173.796875 107.558594 173.847656 107.816406 173.847656 C 108.179688 173.847656 108.472656 173.757812 108.699219 173.582031 C 108.925781 173.40625 109.132812 173.117188 109.3125 172.707031 L 109.347656 172.625 L 105.386719 163.414062 L 108.121094 163.414062 L 110.6875 169.613281 L 113.273438 163.414062 Z M 115.820312 163.414062 " fill-opacity="1" fill-rule="nonzero"/></g><g clip-path="url(#5f336b080e)"><path stroke-linecap="round" transform="matrix(0.000000000205947, -0.117999, 0.117999, 0.000000000205947, 6.69437, 176.616976)" fill="none" stroke-linejoin="miter" d="M 12.511547 12.488223 L 360.402143 12.488222 " stroke="#000000" stroke-width="25" stroke-opacity="1" stroke-miterlimit="4"/></g><path fill="#000000" d="M 6.386719 89.882812 L 6.386719 122.539062 L 20.195312 122.539062 L 20.222656 101.429688 L 20.257812 80.316406 L 22.324219 82.730469 C 24.203125 84.933594 26.21875 87.34375 38.257812 101.839844 C 42.726562 107.214844 41.917969 106.253906 47.316406 112.589844 C 49.679688 115.363281 52.554688 118.734375 53.699219 120.089844 L 55.789062 122.539062 L 61.910156 122.515625 L 68.03125 122.480469 L 68.066406 96.476562 L 68.09375 70.476562 L 75.804688 70.511719 L 83.519531 70.539062 L 83.519531 122.539062 L 97.203125 122.539062 L 97.203125 70.539062 L 116.238281 70.539062 L 116.238281 57.226562 L 54.160156 57.226562 L 54.132812 78.0625 L 54.097656 98.902344 L 52.09375 96.453125 C 44.207031 86.785156 35.996094 77.144531 20.878906 59.8125 L 18.640625 57.238281 L 12.519531 57.238281 L 6.386719 57.226562 Z M 15.953125 63.347656 C 16.984375 64.554688 21.949219 70.214844 23.21875 71.65625 C 31.941406 81.535156 39.402344 90.34375 46.507812 99.164062 C 48.421875 101.539062 52.652344 106.480469 58.140625 112.75 L 60.066406 114.953125 L 60.105469 88.949219 L 60.128906 62.949219 L 110.515625 62.949219 L 110.515625 64.816406 L 91.355469 64.816406 L 91.355469 116.816406 L 89.367188 116.816406 L 89.367188 64.816406 L 75.71875 64.839844 L 62.058594 64.875 L 62.058594 116.695312 L 58.773438 116.695312 L 55.75 113.183594 C 54.085938 111.269531 52.117188 108.980469 51.359375 108.109375 C 50.613281 107.238281 49.144531 105.558594 48.113281 104.363281 C 47.09375 103.171875 45.015625 100.683594 43.523438 98.839844 C 35.375 88.777344 32.0625 84.855469 22.570312 74.019531 C 15.617188 66.082031 14.484375 64.816406 14.335938 64.816406 C 14.261719 64.816406 14.222656 74.480469 14.222656 90.714844 L 14.238281 116.632812 L 13.292969 116.667969 L 12.359375 116.707031 L 12.359375 62.949219 L 15.605469 62.949219 Z M 15.953125 63.347656 " fill-opacity="1" fill-rule="nonzero"/></svg>