<svg xmlns="http://www.w3.org/2000/svg" xmlns:xlink="http://www.w3.org/1999/xlink" width="55" zoomAndPan="magnify" viewBox="0 0 41.25 43.499999" height="58" preserveAspectRatio="xMidYMid meet" version="1.0"><defs><clipPath id="d1e659edf9"><path d="M 0 0.144531 L 40.511719 0.144531 L 40.511719 42.867188 L 0 42.867188 Z M 0 0.144531 " clip-rule="nonzero"/></clipPath><clipPath id="06a5e7338f"><path d="M 0 1 L 40.511719 1 L 40.511719 42 L 0 42 Z M 0 1 " clip-rule="nonzero"/></clipPath><clipPath id="03463e330c"><path d="M 0.554688 0.800781 L 39.957031 0.800781 L 39.957031 40.207031 L 0.554688 40.207031 Z M 0.554688 0.800781 " clip-rule="nonzero"/></clipPath><clipPath id="56b52e7d85"><path d="M 1 2 L 39.957031 2 L 39.957031 39 L 1 39 Z M 1 2 " clip-rule="nonzero"/></clipPath><clipPath id="172e51e90e"><rect x="0" width="41" y="0" height="41"/></clipPath></defs><g clip-path="url(#d1e659edf9)"><path fill="#ffffff" d="M 0 0.144531 L 40.511719 0.144531 L 40.511719 42.867188 L 0 42.867188 Z M 0 0.144531 " fill-opacity="1" fill-rule="nonzero"/></g><g clip-path="url(#06a5e7338f)"><g transform="matrix(1, 0, 0, 1, 0, 1)"><g clip-path="url(#172e51e90e)"><g clip-path="url(#03463e330c)"><path fill="#ffffff" d="M 0.554688 0.800781 L 39.957031 0.800781 L 39.957031 40.207031 L 0.554688 40.207031 Z M 0.554688 0.800781 " fill-opacity="1" fill-rule="nonzero"/></g><path fill="#ffffff" d="M 2.015625 2.992188 L 12.230469 2.992188 M 15.148438 2.992188 L 18.066406 2.992188 M 20.988281 2.992188 L 23.90625 2.992188 M 25.363281 2.992188 L 26.824219 2.992188 M 28.285156 2.992188 L 38.5 2.992188 M 2.015625 4.449219 L 3.472656 4.449219 M 10.769531 4.449219 L 12.230469 4.449219 M 23.90625 4.449219 L 26.824219 4.449219 M 28.285156 4.449219 L 29.742188 4.449219 M 37.039062 4.449219 L 38.5 4.449219 M 2.015625 5.910156 L 3.472656 5.910156 M 4.933594 5.910156 L 9.3125 5.910156 M 10.769531 5.910156 L 12.230469 5.910156 M 13.6875 5.910156 L 18.066406 5.910156 M 19.527344 5.910156 L 20.988281 5.910156 M 22.445312 5.910156 L 23.90625 5.910156 M 25.363281 5.910156 L 26.824219 5.910156 M 28.285156 5.910156 L 29.742188 5.910156 M 31.203125 5.910156 L 35.582031 5.910156 M 37.039062 5.910156 L 38.5 5.910156 M 2.015625 7.371094 L 3.472656 7.371094 M 4.933594 7.371094 L 9.3125 7.371094 M 10.769531 7.371094 L 12.230469 7.371094 M 13.6875 7.371094 L 15.148438 7.371094 M 16.609375 7.371094 L 22.445312 7.371094 M 23.90625 7.371094 L 25.363281 7.371094 M 28.285156 7.371094 L 29.742188 7.371094 M 31.203125 7.371094 L 35.582031 7.371094 M 37.039062 7.371094 L 38.5 7.371094 M 2.015625 8.828125 L 3.472656 8.828125 M 4.933594 8.828125 L 9.3125 8.828125 M 10.769531 8.828125 L 12.230469 8.828125 M 13.6875 8.828125 L 16.609375 8.828125 M 19.527344 8.828125 L 22.445312 8.828125 M 25.363281 8.828125 L 26.824219 8.828125 M 28.285156 8.828125 L 29.742188 8.828125 M 31.203125 8.828125 L 35.582031 8.828125 M 37.039062 8.828125 L 38.5 8.828125 M 2.015625 10.289062 L 3.472656 10.289062 M 10.769531 10.289062 L 12.230469 10.289062 M 13.6875 10.289062 L 15.148438 10.289062 M 19.527344 10.289062 L 26.824219 10.289062 M 28.285156 10.289062 L 29.742188 10.289062 M 37.039062 10.289062 L 38.5 10.289062 M 2.015625 11.75 L 12.230469 11.75 M 13.6875 11.75 L 15.148438 11.75 M 16.609375 11.75 L 18.066406 11.75 M 19.527344 11.75 L 20.988281 11.75 M 22.445312 11.75 L 23.90625 11.75 M 25.363281 11.75 L 26.824219 11.75 M 28.285156 11.75 L 38.5 11.75 M 13.6875 13.207031 L 15.148438 13.207031 M 19.527344 13.207031 L 20.988281 13.207031 M 25.363281 13.207031 L 26.824219 13.207031 M 2.015625 14.667969 L 3.472656 14.667969 M 4.933594 14.667969 L 12.230469 14.667969 M 15.148438 14.667969 L 16.609375 14.667969 M 18.066406 14.667969 L 19.527344 14.667969 M 20.988281 14.667969 L 23.90625 14.667969 M 28.285156 14.667969 L 35.582031 14.667969 M 3.472656 16.125 L 7.851562 16.125 M 15.148438 16.125 L 18.066406 16.125 M 19.527344 16.125 L 20.988281 16.125 M 25.363281 16.125 L 26.824219 16.125 M 29.742188 16.125 L 31.203125 16.125 M 35.582031 16.125 L 37.039062 16.125 M 2.015625 17.585938 L 3.472656 17.585938 M 4.933594 17.585938 L 9.3125 17.585938 M 10.769531 17.585938 L 13.6875 17.585938 M 15.148438 17.585938 L 18.066406 17.585938 M 19.527344 17.585938 L 22.445312 17.585938 M 23.90625 17.585938 L 25.363281 17.585938 M 26.824219 17.585938 L 29.742188 17.585938 M 35.582031 17.585938 L 38.5 17.585938 M 3.472656 19.046875 L 4.933594 19.046875 M 7.851562 19.046875 L 9.3125 19.046875 M 12.230469 19.046875 L 16.609375 19.046875 M 18.066406 19.046875 L 19.527344 19.046875 M 22.445312 19.046875 L 31.203125 19.046875 M 35.582031 19.046875 L 38.5 19.046875 M 2.015625 20.503906 L 3.472656 20.503906 M 7.851562 20.503906 L 9.3125 20.503906 M 10.769531 20.503906 L 15.148438 20.503906 M 19.527344 20.503906 L 23.90625 20.503906 M 26.824219 20.503906 L 32.660156 20.503906 M 34.121094 20.503906 L 35.582031 20.503906 M 37.039062 20.503906 L 38.5 20.503906 M 2.015625 21.964844 L 4.933594 21.964844 M 7.851562 21.964844 L 9.3125 21.964844 M 13.6875 21.964844 L 16.609375 21.964844 M 20.988281 21.964844 L 22.445312 21.964844 M 25.363281 21.964844 L 26.824219 21.964844 M 29.742188 21.964844 L 31.203125 21.964844 M 2.015625 23.421875 L 3.472656 23.421875 M 4.933594 23.421875 L 12.230469 23.421875 M 13.6875 23.421875 L 15.148438 23.421875 M 16.609375 23.421875 L 26.824219 23.421875 M 28.285156 23.421875 L 34.121094 23.421875 M 35.582031 23.421875 L 38.5 23.421875 M 2.015625 24.882812 L 3.472656 24.882812 M 9.3125 24.882812 L 10.769531 24.882812 M 15.148438 24.882812 L 19.527344 24.882812 M 22.445312 24.882812 L 23.90625 24.882812 M 25.363281 24.882812 L 28.285156 24.882812 M 2.015625 26.34375 L 3.472656 26.34375 M 9.3125 26.34375 L 13.6875 26.34375 M 15.148438 26.34375 L 16.609375 26.34375 M 18.066406 26.34375 L 23.90625 26.34375 M 25.363281 26.34375 L 37.039062 26.34375 M 13.6875 27.800781 L 18.066406 27.800781 M 19.527344 27.800781 L 22.445312 27.800781 M 23.90625 27.800781 L 26.824219 27.800781 M 31.203125 27.800781 L 35.582031 27.800781 M 2.015625 29.261719 L 12.230469 29.261719 M 19.527344 29.261719 L 20.988281 29.261719 M 22.445312 29.261719 L 23.90625 29.261719 M 25.363281 29.261719 L 26.824219 29.261719 M 28.285156 29.261719 L 29.742188 29.261719 M 31.203125 29.261719 L 32.660156 29.261719 M 35.582031 29.261719 L 38.5 29.261719 M 2.015625 30.71875 L 3.472656 30.71875 M 10.769531 30.71875 L 12.230469 30.71875 M 13.6875 30.71875 L 15.148438 30.71875 M 16.609375 30.71875 L 20.988281 30.71875 M 22.445312 30.71875 L 23.90625 30.71875 M 25.363281 30.71875 L 26.824219 30.71875 M 31.203125 30.71875 L 32.660156 30.71875 M 35.582031 30.71875 L 38.5 30.71875 M 2.015625 32.179688 L 3.472656 32.179688 M 4.933594 32.179688 L 9.3125 32.179688 M 10.769531 32.179688 L 12.230469 32.179688 M 13.6875 32.179688 L 15.148438 32.179688 M 16.609375 32.179688 L 18.066406 32.179688 M 20.988281 32.179688 L 22.445312 32.179688 M 23.90625 32.179688 L 35.582031 32.179688 M 2.015625 33.640625 L 3.472656 33.640625 M 4.933594 33.640625 L 9.3125 33.640625 M 10.769531 33.640625 L 12.230469 33.640625 M 13.6875 33.640625 L 15.148438 33.640625 M 18.066406 33.640625 L 19.527344 33.640625 M 20.988281 33.640625 L 22.445312 33.640625 M 23.90625 33.640625 L 32.660156 33.640625 M 34.121094 33.640625 L 38.5 33.640625 M 2.015625 35.097656 L 3.472656 35.097656 M 4.933594 35.097656 L 9.3125 35.097656 M 10.769531 35.097656 L 12.230469 35.097656 M 13.6875 35.097656 L 15.148438 35.097656 M 19.527344 35.097656 L 23.90625 35.097656 M 25.363281 35.097656 L 26.824219 35.097656 M 29.742188 35.097656 L 31.203125 35.097656 M 32.660156 35.097656 L 34.121094 35.097656 M 37.039062 35.097656 L 38.5 35.097656 M 2.015625 36.558594 L 3.472656 36.558594 M 10.769531 36.558594 L 12.230469 36.558594 M 15.148438 36.558594 L 16.609375 36.558594 M 23.90625 36.558594 L 26.824219 36.558594 M 29.742188 36.558594 L 31.203125 36.558594 M 37.039062 36.558594 L 38.5 36.558594 M 2.015625 38.015625 L 12.230469 38.015625 M 13.6875 38.015625 L 16.609375 38.015625 M 20.988281 38.015625 L 23.90625 38.015625 M 28.285156 38.015625 L 31.203125 38.015625 M 34.121094 38.015625 L 38.5 38.015625 " fill-opacity="1" fill-rule="nonzero"/><g clip-path="url(#56b52e7d85)"><path stroke-linecap="butt" transform="matrix(1.459392, 0, 0, 1.459392, 0.554904, 0.802671)" fill="none" stroke-linejoin="miter" d="M 1.000911 1.500294 L 8.000294 1.500294 M 9.999736 1.500294 L 11.999177 1.500294 M 14.001295 1.500294 L 16.000737 1.500294 M 16.999119 1.500294 L 18.000178 1.500294 M 19.001237 1.500294 L 26.000621 1.500294 M 1.000911 2.498676 L 1.999293 2.498676 M 6.999235 2.498676 L 8.000294 2.498676 M 16.000737 2.498676 L 18.000178 2.498676 M 19.001237 2.498676 L 19.99962 2.498676 M 24.999562 2.498676 L 26.000621 2.498676 M 1.000911 3.499735 L 1.999293 3.499735 M 3.000352 3.499735 L 6.000853 3.499735 M 6.999235 3.499735 L 8.000294 3.499735 M 8.998677 3.499735 L 11.999177 3.499735 M 13.000236 3.499735 L 14.001295 3.499735 M 14.999678 3.499735 L 16.000737 3.499735 M 16.999119 3.499735 L 18.000178 3.499735 M 19.001237 3.499735 L 19.99962 3.499735 M 21.000679 3.499735 L 24.001179 3.499735 M 24.999562 3.499735 L 26.000621 3.499735 M 1.000911 4.500794 L 1.999293 4.500794 M 3.000352 4.500794 L 6.000853 4.500794 M 6.999235 4.500794 L 8.000294 4.500794 M 8.998677 4.500794 L 9.999736 4.500794 M 11.000795 4.500794 L 14.999678 4.500794 M 16.000737 4.500794 L 16.999119 4.500794 M 19.001237 4.500794 L 19.99962 4.500794 M 21.000679 4.500794 L 24.001179 4.500794 M 24.999562 4.500794 L 26.000621 4.500794 M 1.000911 5.499177 L 1.999293 5.499177 M 3.000352 5.499177 L 6.000853 5.499177 M 6.999235 5.499177 L 8.000294 5.499177 M 8.998677 5.499177 L 11.000795 5.499177 M 13.000236 5.499177 L 14.999678 5.499177 M 16.999119 5.499177 L 18.000178 5.499177 M 19.001237 5.499177 L 19.99962 5.499177 M 21.000679 5.499177 L 24.001179 5.499177 M 24.999562 5.499177 L 26.000621 5.499177 M 1.000911 6.500236 L 1.999293 6.500236 M 6.999235 6.500236 L 8.000294 6.500236 M 8.998677 6.500236 L 9.999736 6.500236 M 13.000236 6.500236 L 18.000178 6.500236 M 19.001237 6.500236 L 19.99962 6.500236 M 24.999562 6.500236 L 26.000621 6.500236 M 1.000911 7.501295 L 8.000294 7.501295 M 8.998677 7.501295 L 9.999736 7.501295 M 11.000795 7.501295 L 11.999177 7.501295 M 13.000236 7.501295 L 14.001295 7.501295 M 14.999678 7.501295 L 16.000737 7.501295 M 16.999119 7.501295 L 18.000178 7.501295 M 19.001237 7.501295 L 26.000621 7.501295 M 8.998677 8.499677 L 9.999736 8.499677 M 13.000236 8.499677 L 14.001295 8.499677 M 16.999119 8.499677 L 18.000178 8.499677 M 1.000911 9.500736 L 1.999293 9.500736 M 3.000352 9.500736 L 8.000294 9.500736 M 9.999736 9.500736 L 11.000795 9.500736 M 11.999177 9.500736 L 13.000236 9.500736 M 14.001295 9.500736 L 16.000737 9.500736 M 19.001237 9.500736 L 24.001179 9.500736 M 1.999293 10.499119 L 4.999794 10.499119 M 9.999736 10.499119 L 11.999177 10.499119 M 13.000236 10.499119 L 14.001295 10.499119 M 16.999119 10.499119 L 18.000178 10.499119 M 19.99962 10.499119 L 21.000679 10.499119 M 24.001179 10.499119 L 24.999562 10.499119 M 1.000911 11.500178 L 1.999293 11.500178 M 3.000352 11.500178 L 6.000853 11.500178 M 6.999235 11.500178 L 8.998677 11.500178 M 9.999736 11.500178 L 11.999177 11.500178 M 13.000236 11.500178 L 14.999678 11.500178 M 16.000737 11.500178 L 16.999119 11.500178 M 18.000178 11.500178 L 19.99962 11.500178 M 24.001179 11.500178 L 26.000621 11.500178 M 1.999293 12.501237 L 3.000352 12.501237 M 4.999794 12.501237 L 6.000853 12.501237 M 8.000294 12.501237 L 11.000795 12.501237 M 11.999177 12.501237 L 13.000236 12.501237 M 14.999678 12.501237 L 21.000679 12.501237 M 24.001179 12.501237 L 26.000621 12.501237 M 1.000911 13.499619 L 1.999293 13.499619 M 4.999794 13.499619 L 6.000853 13.499619 M 6.999235 13.499619 L 9.999736 13.499619 M 13.000236 13.499619 L 16.000737 13.499619 M 18.000178 13.499619 L 21.999061 13.499619 M 23.00012 13.499619 L 24.001179 13.499619 M 24.999562 13.499619 L 26.000621 13.499619 M 1.000911 14.500678 L 3.000352 14.500678 M 4.999794 14.500678 L 6.000853 14.500678 M 8.998677 14.500678 L 11.000795 14.500678 M 14.001295 14.500678 L 14.999678 14.500678 M 16.999119 14.500678 L 18.000178 14.500678 M 19.99962 14.500678 L 21.000679 14.500678 M 1.000911 15.499061 L 1.999293 15.499061 M 3.000352 15.499061 L 8.000294 15.499061 M 8.998677 15.499061 L 9.999736 15.499061 M 11.000795 15.499061 L 18.000178 15.499061 M 19.001237 15.499061 L 23.00012 15.499061 M 24.001179 15.499061 L 26.000621 15.499061 M 1.000911 16.50012 L 1.999293 16.50012 M 6.000853 16.50012 L 6.999235 16.50012 M 9.999736 16.50012 L 13.000236 16.50012 M 14.999678 16.50012 L 16.000737 16.50012 M 16.999119 16.50012 L 19.001237 16.50012 M 1.000911 17.501179 L 1.999293 17.501179 M 6.000853 17.501179 L 8.998677 17.501179 M 9.999736 17.501179 L 11.000795 17.501179 M 11.999177 17.501179 L 16.000737 17.501179 M 16.999119 17.501179 L 24.999562 17.501179 M 8.998677 18.499561 L 11.999177 18.499561 M 13.000236 18.499561 L 14.999678 18.499561 M 16.000737 18.499561 L 18.000178 18.499561 M 21.000679 18.499561 L 24.001179 18.499561 M 1.000911 19.50062 L 8.000294 19.50062 M 13.000236 19.50062 L 14.001295 19.50062 M 14.999678 19.50062 L 16.000737 19.50062 M 16.999119 19.50062 L 18.000178 19.50062 M 19.001237 19.50062 L 19.99962 19.50062 M 21.000679 19.50062 L 21.999061 19.50062 M 24.001179 19.50062 L 26.000621 19.50062 M 1.000911 20.499002 L 1.999293 20.499002 M 6.999235 20.499002 L 8.000294 20.499002 M 8.998677 20.499002 L 9.999736 20.499002 M 11.000795 20.499002 L 14.001295 20.499002 M 14.999678 20.499002 L 16.000737 20.499002 M 16.999119 20.499002 L 18.000178 20.499002 M 21.000679 20.499002 L 21.999061 20.499002 M 24.001179 20.499002 L 26.000621 20.499002 M 1.000911 21.500062 L 1.999293 21.500062 M 3.000352 21.500062 L 6.000853 21.500062 M 6.999235 21.500062 L 8.000294 21.500062 M 8.998677 21.500062 L 9.999736 21.500062 M 11.000795 21.500062 L 11.999177 21.500062 M 14.001295 21.500062 L 14.999678 21.500062 M 16.000737 21.500062 L 24.001179 21.500062 M 1.000911 22.501121 L 1.999293 22.501121 M 3.000352 22.501121 L 6.000853 22.501121 M 6.999235 22.501121 L 8.000294 22.501121 M 8.998677 22.501121 L 9.999736 22.501121 M 11.999177 22.501121 L 13.000236 22.501121 M 14.001295 22.501121 L 14.999678 22.501121 M 16.000737 22.501121 L 21.999061 22.501121 M 23.00012 22.501121 L 26.000621 22.501121 M 1.000911 23.499503 L 1.999293 23.499503 M 3.000352 23.499503 L 6.000853 23.499503 M 6.999235 23.499503 L 8.000294 23.499503 M 8.998677 23.499503 L 9.999736 23.499503 M 13.000236 23.499503 L 16.000737 23.499503 M 16.999119 23.499503 L 18.000178 23.499503 M 19.99962 23.499503 L 21.000679 23.499503 M 21.999061 23.499503 L 23.00012 23.499503 M 24.999562 23.499503 L 26.000621 23.499503 M 1.000911 24.500562 L 1.999293 24.500562 M 6.999235 24.500562 L 8.000294 24.500562 M 9.999736 24.500562 L 11.000795 24.500562 M 16.000737 24.500562 L 18.000178 24.500562 M 19.99962 24.500562 L 21.000679 24.500562 M 24.999562 24.500562 L 26.000621 24.500562 M 1.000911 25.498944 L 8.000294 25.498944 M 8.998677 25.498944 L 11.000795 25.498944 M 14.001295 25.498944 L 16.000737 25.498944 M 19.001237 25.498944 L 21.000679 25.498944 M 23.00012 25.498944 L 26.000621 25.498944 " stroke="#000000" stroke-width="1" stroke-opacity="1" stroke-miterlimit="4"/></g></g></g></g></svg>