<svg xmlns="http://www.w3.org/2000/svg" xmlns:xlink="http://www.w3.org/1999/xlink" width="2000" zoomAndPan="magnify" viewBox="0 0 1500 1499.999933" height="2000" preserveAspectRatio="xMidYMid meet" version="1.0"><rect x="-150" width="1800" fill="#ffffff" y="-149.999993" height="1799.99992" fill-opacity="1"/><rect x="-150" width="1800" fill="#ffffff" y="-149.999993" height="1799.99992" fill-opacity="1"/><path fill="#000000" d="M 27.824219 749.695312 L 27.824219 1178.949219 L 209.3125 1178.949219 L 209.636719 901.445312 L 210.128906 623.945312 L 237.269531 655.667969 C 261.960938 684.613281 288.445312 716.335938 446.71875 906.84375 C 505.414062 977.484375 494.789062 964.894531 565.746094 1048.128906 C 596.8125 1084.59375 634.582031 1128.910156 649.625 1146.734375 L 677.09375 1178.949219 L 757.535156 1178.621094 L 837.980469 1178.132812 L 838.46875 836.363281 L 838.796875 494.59375 L 940.167969 495.085938 L 1041.542969 495.414062 L 1041.542969 1178.949219 L 1221.394531 1178.949219 L 1221.394531 495.414062 L 1471.554688 495.414062 L 1471.554688 320.441406 L 655.675781 320.441406 L 655.347656 594.347656 L 654.855469 868.25 L 628.53125 836.035156 C 524.871094 708.976562 416.960938 582.246094 218.304688 354.453125 L 188.875 320.605469 L 108.429688 320.605469 L 27.824219 320.441406 Z M 153.554688 400.894531 C 167.128906 416.757812 232.363281 491.160156 249.042969 510.128906 C 363.65625 639.96875 461.757812 755.746094 555.121094 871.683594 C 580.300781 902.917969 635.890625 967.839844 707.996094 1050.253906 L 733.339844 1079.199219 L 733.828125 737.429688 L 734.15625 395.664062 L 1396.34375 395.664062 L 1396.34375 420.191406 L 1144.546875 420.191406 L 1144.546875 1103.726562 L 1118.386719 1103.726562 L 1118.386719 420.191406 L 939.023438 420.519531 L 759.5 421.007812 L 759.5 1102.09375 L 716.332031 1102.09375 L 676.601562 1055.976562 C 654.691406 1030.796875 628.859375 1000.707031 618.886719 989.261719 C 609.074219 977.8125 589.78125 955.738281 576.210938 940.039062 C 562.804688 924.339844 535.5 891.636719 515.878906 867.433594 C 408.785156 735.140625 365.292969 683.632812 240.539062 541.199219 C 149.140625 436.871094 134.261719 420.191406 132.300781 420.191406 C 131.320312 420.191406 130.828125 547.25 130.828125 760.652344 L 130.992188 1101.273438 L 118.566406 1101.765625 L 106.304688 1102.253906 L 106.304688 395.664062 L 148.976562 395.664062 Z M 153.554688 400.894531 " fill-opacity="1" fill-rule="nonzero"/></svg>