<svg xmlns="http://www.w3.org/2000/svg" xmlns:xlink="http://www.w3.org/1999/xlink" width="2000" zoomAndPan="magnify" viewBox="0 0 1500 1499.999933" height="2000" preserveAspectRatio="xMidYMid meet" version="1.0"><defs><g/><clipPath id="60b13e4a83"><path d="M 40 0 L 765.839844 0 L 765.839844 311.761719 L 40 311.761719 Z M 40 0 " clip-rule="nonzero"/></clipPath><clipPath id="6bde070f80"><path d="M 0.320312 198 L 74 198 L 74 282 L 0.320312 282 Z M 0.320312 198 " clip-rule="nonzero"/></clipPath><clipPath id="eff840429c"><path d="M 651 217 L 725.839844 217 L 725.839844 306 L 651 306 Z M 651 217 " clip-rule="nonzero"/></clipPath><clipPath id="3a1ba4277e"><rect x="0" width="726" y="0" height="312"/></clipPath><clipPath id="346e217be9"><path d="M 0.238281 1 L 22 1 L 22 310 L 0.238281 310 Z M 0.238281 1 " clip-rule="nonzero"/></clipPath><clipPath id="94d6001d9d"><rect x="0" width="766" y="0" height="312"/></clipPath></defs><rect x="-150" width="1800" fill="#ffffff" y="-149.999993" height="1799.99992" fill-opacity="1"/><rect x="-150" width="1800" fill="#ffffff" y="-149.999993" height="1799.99992" fill-opacity="1"/><g transform="matrix(1, 0, 0, 1, 702, 594)"><g clip-path="url(#94d6001d9d)"><g clip-path="url(#60b13e4a83)"><g transform="matrix(1, 0, 0, 1, 40, 0.000000000000113687)"><g clip-path="url(#3a1ba4277e)"><g fill="#000000" fill-opacity="1"><g transform="translate(0.327001, 114.974712)"><g><path d="M 86.359375 -83.375 L 86.359375 0 L 70.515625 0 L 28.9375 -50.625 L 28.9375 0 L 9.890625 0 L 9.890625 -83.375 L 25.84375 -83.375 L 67.296875 -32.75 L 67.296875 -83.375 Z M 86.359375 -83.375 "/></g></g></g><g fill="#000000" fill-opacity="1"><g transform="translate(96.563599, 114.974712)"><g><path d="M 34.421875 -65.03125 C 44.347656 -65.03125 51.96875 -62.664062 57.28125 -57.9375 C 62.601562 -53.21875 65.265625 -46.09375 65.265625 -36.5625 L 65.265625 0 L 47.875 0 L 47.875 -7.984375 C 44.382812 -2.023438 37.875 0.953125 28.34375 0.953125 C 23.425781 0.953125 19.160156 0.117188 15.546875 -1.546875 C 11.929688 -3.210938 9.171875 -5.515625 7.265625 -8.453125 C 5.359375 -11.390625 4.40625 -14.726562 4.40625 -18.46875 C 4.40625 -24.414062 6.644531 -29.097656 11.125 -32.515625 C 15.613281 -35.929688 22.546875 -37.640625 31.921875 -37.640625 L 46.6875 -37.640625 C 46.6875 -41.691406 45.457031 -44.804688 43 -46.984375 C 40.539062 -49.171875 36.847656 -50.265625 31.921875 -50.265625 C 28.503906 -50.265625 25.144531 -49.726562 21.84375 -48.65625 C 18.550781 -47.582031 15.753906 -46.132812 13.453125 -44.3125 L 6.796875 -57.296875 C 10.285156 -59.753906 14.472656 -61.65625 19.359375 -63 C 24.242188 -64.351562 29.265625 -65.03125 34.421875 -65.03125 Z M 33 -11.546875 C 36.164062 -11.546875 38.976562 -12.28125 41.4375 -13.75 C 43.90625 -15.21875 45.65625 -17.382812 46.6875 -20.25 L 46.6875 -26.796875 L 33.953125 -26.796875 C 26.328125 -26.796875 22.515625 -24.296875 22.515625 -19.296875 C 22.515625 -16.910156 23.445312 -15.019531 25.3125 -13.625 C 27.175781 -12.238281 29.738281 -11.546875 33 -11.546875 Z M 33 -11.546875 "/></g></g></g><g fill="#000000" fill-opacity="1"><g transform="translate(170.051192, 114.974712)"><g><path d="M 73.140625 -64.078125 L 73.140625 0 L 55.5 0 L 55.5 -7.625 C 53.039062 -4.84375 50.101562 -2.71875 46.6875 -1.25 C 43.269531 0.21875 39.578125 0.953125 35.609375 0.953125 C 27.191406 0.953125 20.519531 -1.46875 15.59375 -6.3125 C 10.675781 -11.15625 8.21875 -18.34375 8.21875 -27.875 L 8.21875 -64.078125 L 26.796875 -64.078125 L 26.796875 -30.609375 C 26.796875 -20.285156 31.125 -15.125 39.78125 -15.125 C 44.226562 -15.125 47.800781 -16.570312 50.5 -19.46875 C 53.195312 -22.375 54.546875 -26.679688 54.546875 -32.390625 L 54.546875 -64.078125 Z M 73.140625 -64.078125 "/></g></g></g><g fill="#000000" fill-opacity="1"><g transform="translate(251.876131, 114.974712)"><g><path d="M 49.90625 -3.09375 C 48.082031 -1.75 45.835938 -0.738281 43.171875 -0.0625 C 40.515625 0.613281 37.71875 0.953125 34.78125 0.953125 C 27.15625 0.953125 21.257812 -0.988281 17.09375 -4.875 C 12.925781 -8.769531 10.84375 -14.488281 10.84375 -22.03125 L 10.84375 -48.359375 L 0.953125 -48.359375 L 0.953125 -62.65625 L 10.84375 -62.65625 L 10.84375 -78.25 L 29.421875 -78.25 L 29.421875 -62.65625 L 45.375 -62.65625 L 45.375 -48.359375 L 29.421875 -48.359375 L 29.421875 -22.28125 C 29.421875 -19.570312 30.113281 -17.484375 31.5 -16.015625 C 32.894531 -14.546875 34.863281 -13.8125 37.40625 -13.8125 C 40.34375 -13.8125 42.84375 -14.609375 44.90625 -16.203125 Z M 49.90625 -3.09375 "/></g></g></g><g fill="#000000" fill-opacity="1"><g transform="translate(303.686662, 114.974712)"><g><path d="M 8.578125 -64.078125 L 27.15625 -64.078125 L 27.15625 0 L 8.578125 0 Z M 17.859375 -72.890625 C 14.921875 -72.890625 12.519531 -73.84375 10.65625 -75.75 C 8.789062 -77.65625 7.859375 -80.078125 7.859375 -83.015625 C 7.859375 -85.878906 8.789062 -88.265625 10.65625 -90.171875 C 12.519531 -92.078125 14.921875 -93.03125 17.859375 -93.03125 C 20.796875 -93.03125 23.195312 -92.078125 25.0625 -90.171875 C 26.925781 -88.265625 27.859375 -85.878906 27.859375 -83.015625 C 27.859375 -80.078125 26.925781 -77.65625 25.0625 -75.75 C 23.195312 -73.84375 20.796875 -72.890625 17.859375 -72.890625 Z M 17.859375 -72.890625 "/></g></g></g><g fill="#000000" fill-opacity="1"><g transform="translate(339.537151, 114.974712)"><g><path d="M 8.578125 -88.375 L 27.15625 -88.375 L 27.15625 0 L 8.578125 0 Z M 8.578125 -88.375 "/></g></g></g><g fill="#000000" fill-opacity="1"><g transform="translate(375.387664, 114.974712)"><g><path d="M 73.140625 -64.078125 L 73.140625 0 L 55.5 0 L 55.5 -7.625 C 53.039062 -4.84375 50.101562 -2.71875 46.6875 -1.25 C 43.269531 0.21875 39.578125 0.953125 35.609375 0.953125 C 27.191406 0.953125 20.519531 -1.46875 15.59375 -6.3125 C 10.675781 -11.15625 8.21875 -18.34375 8.21875 -27.875 L 8.21875 -64.078125 L 26.796875 -64.078125 L 26.796875 -30.609375 C 26.796875 -20.285156 31.125 -15.125 39.78125 -15.125 C 44.226562 -15.125 47.800781 -16.570312 50.5 -19.46875 C 53.195312 -22.375 54.546875 -26.679688 54.546875 -32.390625 L 54.546875 -64.078125 Z M 73.140625 -64.078125 "/></g></g></g><g fill="#000000" fill-opacity="1"><g transform="translate(457.212581, 114.974712)"><g><path d="M 30.140625 0.953125 C 24.816406 0.953125 19.613281 0.296875 14.53125 -1.015625 C 9.445312 -2.328125 5.394531 -3.972656 2.375 -5.953125 L 8.578125 -19.296875 C 11.429688 -17.472656 14.882812 -15.984375 18.9375 -14.828125 C 22.988281 -13.679688 26.957031 -13.109375 30.84375 -13.109375 C 38.707031 -13.109375 42.640625 -15.050781 42.640625 -18.9375 C 42.640625 -20.757812 41.566406 -22.066406 39.421875 -22.859375 C 37.273438 -23.660156 33.984375 -24.335938 29.546875 -24.890625 C 24.296875 -25.679688 19.960938 -26.59375 16.546875 -27.625 C 13.140625 -28.664062 10.1875 -30.492188 7.6875 -33.109375 C 5.1875 -35.734375 3.9375 -39.46875 3.9375 -44.3125 C 3.9375 -48.363281 5.101562 -51.957031 7.4375 -55.09375 C 9.78125 -58.226562 13.195312 -60.664062 17.6875 -62.40625 C 22.175781 -64.15625 27.476562 -65.03125 33.59375 -65.03125 C 38.113281 -65.03125 42.617188 -64.535156 47.109375 -63.546875 C 51.597656 -62.554688 55.3125 -61.1875 58.25 -59.4375 L 52.046875 -46.21875 C 46.410156 -49.394531 40.257812 -50.984375 33.59375 -50.984375 C 29.625 -50.984375 26.644531 -50.425781 24.65625 -49.3125 C 22.664062 -48.195312 21.671875 -46.765625 21.671875 -45.015625 C 21.671875 -43.035156 22.742188 -41.644531 24.890625 -40.84375 C 27.035156 -40.050781 30.453125 -39.300781 35.140625 -38.59375 C 40.378906 -37.71875 44.664062 -36.78125 48 -35.78125 C 51.332031 -34.789062 54.226562 -32.984375 56.6875 -30.359375 C 59.15625 -27.742188 60.390625 -24.097656 60.390625 -19.421875 C 60.390625 -15.441406 59.195312 -11.90625 56.8125 -8.8125 C 54.425781 -5.71875 50.953125 -3.316406 46.390625 -1.609375 C 41.828125 0.0976562 36.410156 0.953125 30.140625 0.953125 Z M 30.140625 0.953125 "/></g></g></g><g clip-path="url(#6bde070f80)"><g fill="#000000" fill-opacity="1"><g transform="translate(0.327001, 281.398017)"><g><path d="M 27.15625 -67.65625 L 0.46875 -67.65625 L 0.46875 -83.375 L 73.140625 -83.375 L 73.140625 -67.65625 L 46.453125 -67.65625 L 46.453125 0 L 27.15625 0 Z M 27.15625 -67.65625 "/></g></g></g></g><g fill="#000000" fill-opacity="1"><g transform="translate(67.382917, 281.398017)"><g><path d="M 71.34375 -31.796875 C 71.34375 -31.554688 71.222656 -29.890625 70.984375 -26.796875 L 22.515625 -26.796875 C 23.390625 -22.828125 25.453125 -19.691406 28.703125 -17.390625 C 31.960938 -15.085938 36.015625 -13.9375 40.859375 -13.9375 C 44.191406 -13.9375 47.144531 -14.429688 49.71875 -15.421875 C 52.300781 -16.410156 54.707031 -17.976562 56.9375 -20.125 L 66.828125 -9.40625 C 60.785156 -2.5 51.96875 0.953125 40.375 0.953125 C 33.15625 0.953125 26.765625 -0.453125 21.203125 -3.265625 C 15.640625 -6.085938 11.347656 -10 8.328125 -15 C 5.316406 -20.007812 3.8125 -25.691406 3.8125 -32.046875 C 3.8125 -38.316406 5.300781 -43.972656 8.28125 -49.015625 C 11.257812 -54.054688 15.347656 -57.984375 20.546875 -60.796875 C 25.742188 -63.617188 31.5625 -65.03125 38 -65.03125 C 44.269531 -65.03125 49.945312 -63.679688 55.03125 -60.984375 C 60.113281 -58.285156 64.101562 -54.414062 67 -49.375 C 69.894531 -44.332031 71.34375 -38.472656 71.34375 -31.796875 Z M 38.109375 -50.984375 C 33.898438 -50.984375 30.363281 -49.789062 27.5 -47.40625 C 24.644531 -45.019531 22.90625 -41.765625 22.28125 -37.640625 L 53.84375 -37.640625 C 53.207031 -41.691406 51.457031 -44.925781 48.59375 -47.34375 C 45.738281 -49.769531 42.242188 -50.984375 38.109375 -50.984375 Z M 38.109375 -50.984375 "/></g></g></g><g fill="#000000" fill-opacity="1"><g transform="translate(142.537971, 281.398017)"><g><path d="M 39.546875 0.953125 C 32.710938 0.953125 26.578125 -0.453125 21.140625 -3.265625 C 15.703125 -6.085938 11.453125 -10 8.390625 -15 C 5.335938 -20.007812 3.8125 -25.691406 3.8125 -32.046875 C 3.8125 -38.390625 5.335938 -44.0625 8.390625 -49.0625 C 11.453125 -54.070312 15.703125 -57.984375 21.140625 -60.796875 C 26.578125 -63.617188 32.710938 -65.03125 39.546875 -65.03125 C 46.296875 -65.03125 52.191406 -63.617188 57.234375 -60.796875 C 62.273438 -57.984375 65.945312 -53.957031 68.25 -48.71875 L 53.84375 -40.96875 C 50.5 -46.84375 45.691406 -49.78125 39.421875 -49.78125 C 34.578125 -49.78125 30.566406 -48.191406 27.390625 -45.015625 C 24.210938 -41.847656 22.625 -37.523438 22.625 -32.046875 C 22.625 -26.566406 24.210938 -22.238281 27.390625 -19.0625 C 30.566406 -15.882812 34.578125 -14.296875 39.421875 -14.296875 C 45.773438 -14.296875 50.582031 -17.234375 53.84375 -23.109375 L 68.25 -15.25 C 65.945312 -10.164062 62.273438 -6.191406 57.234375 -3.328125 C 52.191406 -0.472656 46.296875 0.953125 39.546875 0.953125 Z M 39.546875 0.953125 "/></g></g></g><g fill="#000000" fill-opacity="1"><g transform="translate(212.452417, 281.398017)"><g><path d="M 47.53125 -65.03125 C 55.46875 -65.03125 61.878906 -62.644531 66.765625 -57.875 C 71.648438 -53.113281 74.09375 -46.050781 74.09375 -36.6875 L 74.09375 0 L 55.5 0 L 55.5 -33.828125 C 55.5 -38.910156 54.382812 -42.703125 52.15625 -45.203125 C 49.9375 -47.703125 46.722656 -48.953125 42.515625 -48.953125 C 37.835938 -48.953125 34.109375 -47.503906 31.328125 -44.609375 C 28.546875 -41.710938 27.15625 -37.40625 27.15625 -31.6875 L 27.15625 0 L 8.578125 0 L 8.578125 -88.375 L 27.15625 -88.375 L 27.15625 -57.40625 C 29.613281 -59.875 32.585938 -61.757812 36.078125 -63.0625 C 39.578125 -64.375 43.394531 -65.03125 47.53125 -65.03125 Z M 47.53125 -65.03125 "/></g></g></g><g fill="#000000" fill-opacity="1"><g transform="translate(294.753753, 281.398017)"><g><path d="M 47.53125 -65.03125 C 55.46875 -65.03125 61.878906 -62.644531 66.765625 -57.875 C 71.648438 -53.113281 74.09375 -46.050781 74.09375 -36.6875 L 74.09375 0 L 55.5 0 L 55.5 -33.828125 C 55.5 -38.910156 54.382812 -42.703125 52.15625 -45.203125 C 49.9375 -47.703125 46.722656 -48.953125 42.515625 -48.953125 C 37.835938 -48.953125 34.109375 -47.503906 31.328125 -44.609375 C 28.546875 -41.710938 27.15625 -37.40625 27.15625 -31.6875 L 27.15625 0 L 8.578125 0 L 8.578125 -64.078125 L 26.328125 -64.078125 L 26.328125 -56.578125 C 28.785156 -59.273438 31.835938 -61.359375 35.484375 -62.828125 C 39.140625 -64.296875 43.15625 -65.03125 47.53125 -65.03125 Z M 47.53125 -65.03125 "/></g></g></g><g fill="#000000" fill-opacity="1"><g transform="translate(377.769715, 281.398017)"><g><path d="M 39.0625 0.953125 C 32.3125 0.953125 26.253906 -0.453125 20.890625 -3.265625 C 15.535156 -6.085938 11.347656 -10 8.328125 -15 C 5.316406 -20.007812 3.8125 -25.691406 3.8125 -32.046875 C 3.8125 -38.390625 5.316406 -44.0625 8.328125 -49.0625 C 11.347656 -54.070312 15.535156 -57.984375 20.890625 -60.796875 C 26.253906 -63.617188 32.3125 -65.03125 39.0625 -65.03125 C 45.8125 -65.03125 51.847656 -63.617188 57.171875 -60.796875 C 62.492188 -57.984375 66.660156 -54.070312 69.671875 -49.0625 C 72.691406 -44.0625 74.203125 -38.390625 74.203125 -32.046875 C 74.203125 -25.691406 72.691406 -20.007812 69.671875 -15 C 66.660156 -10 62.492188 -6.085938 57.171875 -3.265625 C 51.847656 -0.453125 45.8125 0.953125 39.0625 0.953125 Z M 39.0625 -14.296875 C 43.832031 -14.296875 47.742188 -15.898438 50.796875 -19.109375 C 53.859375 -22.328125 55.390625 -26.640625 55.390625 -32.046875 C 55.390625 -37.441406 53.859375 -41.742188 50.796875 -44.953125 C 47.742188 -48.171875 43.832031 -49.78125 39.0625 -49.78125 C 34.300781 -49.78125 30.367188 -48.171875 27.265625 -44.953125 C 24.171875 -41.742188 22.625 -37.441406 22.625 -32.046875 C 22.625 -26.640625 24.171875 -22.328125 27.265625 -19.109375 C 30.367188 -15.898438 34.300781 -14.296875 39.0625 -14.296875 Z M 39.0625 -14.296875 "/></g></g></g><g fill="#000000" fill-opacity="1"><g transform="translate(455.783286, 281.398017)"><g><path d="M 8.578125 -88.375 L 27.15625 -88.375 L 27.15625 0 L 8.578125 0 Z M 8.578125 -88.375 "/></g></g></g><g fill="#000000" fill-opacity="1"><g transform="translate(491.633775, 281.398017)"><g><path d="M 39.0625 0.953125 C 32.3125 0.953125 26.253906 -0.453125 20.890625 -3.265625 C 15.535156 -6.085938 11.347656 -10 8.328125 -15 C 5.316406 -20.007812 3.8125 -25.691406 3.8125 -32.046875 C 3.8125 -38.390625 5.316406 -44.0625 8.328125 -49.0625 C 11.347656 -54.070312 15.535156 -57.984375 20.890625 -60.796875 C 26.253906 -63.617188 32.3125 -65.03125 39.0625 -65.03125 C 45.8125 -65.03125 51.847656 -63.617188 57.171875 -60.796875 C 62.492188 -57.984375 66.660156 -54.070312 69.671875 -49.0625 C 72.691406 -44.0625 74.203125 -38.390625 74.203125 -32.046875 C 74.203125 -25.691406 72.691406 -20.007812 69.671875 -15 C 66.660156 -10 62.492188 -6.085938 57.171875 -3.265625 C 51.847656 -0.453125 45.8125 0.953125 39.0625 0.953125 Z M 39.0625 -14.296875 C 43.832031 -14.296875 47.742188 -15.898438 50.796875 -19.109375 C 53.859375 -22.328125 55.390625 -26.640625 55.390625 -32.046875 C 55.390625 -37.441406 53.859375 -41.742188 50.796875 -44.953125 C 47.742188 -48.171875 43.832031 -49.78125 39.0625 -49.78125 C 34.300781 -49.78125 30.367188 -48.171875 27.265625 -44.953125 C 24.171875 -41.742188 22.625 -37.441406 22.625 -32.046875 C 22.625 -26.640625 24.171875 -22.328125 27.265625 -19.109375 C 30.367188 -15.898438 34.300781 -14.296875 39.0625 -14.296875 Z M 39.0625 -14.296875 "/></g></g></g><g fill="#000000" fill-opacity="1"><g transform="translate(569.647346, 281.398017)"><g><path d="M 74.6875 -64.078125 L 74.6875 -10.71875 C 74.6875 1.03125 71.628906 9.765625 65.515625 15.484375 C 59.398438 21.203125 50.460938 24.0625 38.703125 24.0625 C 32.515625 24.0625 26.640625 23.304688 21.078125 21.796875 C 15.523438 20.285156 10.921875 18.101562 7.265625 15.25 L 14.65625 1.90625 C 17.351562 4.125 20.765625 5.890625 24.890625 7.203125 C 29.023438 8.515625 33.15625 9.171875 37.28125 9.171875 C 43.707031 9.171875 48.445312 7.71875 51.5 4.8125 C 54.5625 1.914062 56.09375 -2.46875 56.09375 -8.34375 L 56.09375 -11.078125 C 51.25 -5.753906 44.503906 -3.09375 35.859375 -3.09375 C 29.972656 -3.09375 24.585938 -4.382812 19.703125 -6.96875 C 14.828125 -9.550781 10.957031 -13.179688 8.09375 -17.859375 C 5.238281 -22.546875 3.8125 -27.945312 3.8125 -34.0625 C 3.8125 -40.175781 5.238281 -45.578125 8.09375 -50.265625 C 10.957031 -54.953125 14.828125 -58.582031 19.703125 -61.15625 C 24.585938 -63.738281 29.972656 -65.03125 35.859375 -65.03125 C 45.140625 -65.03125 52.203125 -61.972656 57.046875 -55.859375 L 57.046875 -64.078125 Z M 39.546875 -18.34375 C 44.460938 -18.34375 48.488281 -19.789062 51.625 -22.6875 C 54.769531 -25.582031 56.34375 -29.375 56.34375 -34.0625 C 56.34375 -38.75 54.769531 -42.539062 51.625 -45.4375 C 48.488281 -48.332031 44.460938 -49.78125 39.546875 -49.78125 C 34.617188 -49.78125 30.566406 -48.332031 27.390625 -45.4375 C 24.210938 -42.539062 22.625 -38.75 22.625 -34.0625 C 22.625 -29.375 24.210938 -25.582031 27.390625 -22.6875 C 30.566406 -19.789062 34.617188 -18.34375 39.546875 -18.34375 Z M 39.546875 -18.34375 "/></g></g></g><g clip-path="url(#eff840429c)"><g fill="#000000" fill-opacity="1"><g transform="translate(653.020669, 281.398017)"><g><path d="M 72.1875 -64.078125 L 43.234375 3.9375 C 40.296875 11.3125 36.660156 16.507812 32.328125 19.53125 C 28.003906 22.550781 22.785156 24.0625 16.671875 24.0625 C 13.335938 24.0625 10.039062 23.546875 6.78125 22.515625 C 3.53125 21.484375 0.875 20.050781 -1.1875 18.21875 L 5.59375 5 C 7.019531 6.269531 8.664062 7.257812 10.53125 7.96875 C 12.40625 8.6875 14.253906 9.046875 16.078125 9.046875 C 18.617188 9.046875 20.679688 8.429688 22.265625 7.203125 C 23.859375 5.972656 25.289062 3.929688 26.5625 1.078125 L 26.796875 0.46875 L -0.953125 -64.078125 L 18.21875 -64.078125 L 36.203125 -20.609375 L 54.3125 -64.078125 Z M 72.1875 -64.078125 "/></g></g></g></g></g></g></g><g clip-path="url(#346e217be9)"><path stroke-linecap="round" transform="matrix(0.00000000144328, -0.826936, 0.826936, 0.00000000144328, 0.434328, 309.858711)" fill="none" stroke-linejoin="miter" d="M 12.498278 12.498192 L 360.412976 12.498192 " stroke="#000000" stroke-width="25" stroke-opacity="1" stroke-miterlimit="4"/></g></g></g><path fill="#000000" d="M 57.742188 749.898438 L 57.742188 930.238281 L 133.984375 930.238281 L 134.121094 813.652344 L 134.328125 697.066406 L 145.730469 710.394531 C 156.101562 722.554688 167.230469 735.882812 233.71875 815.917969 C 258.378906 845.597656 253.914062 840.308594 283.722656 875.277344 C 296.773438 890.597656 312.640625 909.214844 318.960938 916.703125 L 330.5 930.238281 L 364.296875 930.101562 L 398.089844 929.894531 L 398.296875 786.308594 L 398.433594 642.726562 L 441.019531 642.929688 L 483.605469 643.070312 L 483.605469 930.238281 L 559.164062 930.238281 L 559.164062 643.070312 L 664.253906 643.070312 L 664.253906 569.558594 L 321.503906 569.558594 L 321.367188 684.632812 L 321.160156 799.707031 L 310.101562 786.171875 C 266.550781 732.792969 221.21875 679.546875 137.761719 583.847656 L 125.398438 569.628906 L 91.605469 569.628906 L 57.742188 569.558594 Z M 110.5625 603.359375 C 116.261719 610.023438 143.671875 641.28125 150.675781 649.25 C 198.828125 703.800781 240.039062 752.441406 279.261719 801.148438 C 289.835938 814.269531 313.191406 841.546875 343.484375 876.171875 L 354.128906 888.332031 L 354.335938 744.746094 L 354.472656 601.160156 L 632.660156 601.160156 L 632.660156 611.464844 L 526.878906 611.464844 L 526.878906 898.636719 L 515.890625 898.636719 L 515.890625 611.464844 L 440.539062 611.601562 L 365.121094 611.808594 L 365.121094 897.949219 L 346.984375 897.949219 L 330.296875 878.574219 C 321.089844 867.996094 310.238281 855.355469 306.046875 850.546875 C 301.925781 845.734375 293.820312 836.460938 288.121094 829.867188 C 282.488281 823.269531 271.015625 809.53125 262.773438 799.363281 C 217.785156 743.785156 199.511719 722.144531 147.105469 662.304688 C 108.707031 618.472656 102.457031 611.464844 101.632812 611.464844 C 101.222656 611.464844 101.015625 664.847656 101.015625 754.5 L 101.082031 897.605469 L 95.863281 897.8125 L 90.710938 898.015625 L 90.710938 601.160156 L 108.640625 601.160156 Z M 110.5625 603.359375 " fill-opacity="1" fill-rule="nonzero"/></svg>